<?xml version="1.0" encoding="us-ascii" standalone="no"?><svg xmlns="http://www.w3.org/2000/svg" xmlns:xlink="http://www.w3.org/1999/xlink" contentStyleType="text/css" height="383px" preserveAspectRatio="none" style="width:856px;height:383px;background:#FFFFFF;" version="1.1" viewBox="0 0 856 383" width="856px" zoomAndPan="magnify"><defs/><g><!--cluster pkg_competences--><g id="cluster_pkg_competences"><path d="M121.5,6 L251.5,6 A3.75,3.75 0 0 1 254,8.5 L261,29.6094 L846.5,29.6094 A2.5,2.5 0 0 1 849,32.1094 L849,373.5 A2.5,2.5 0 0 1 846.5,376 L121.5,376 A2.5,2.5 0 0 1 119,373.5 L119,8.5 A2.5,2.5 0 0 1 121.5,6 " fill="none" style="stroke:#000000;stroke-width:1.5;"/><line style="stroke:#000000;stroke-width:1.5;" x1="119" x2="261" y1="29.6094" y2="29.6094"/><text fill="#000000" font-family="sans-serif" font-size="14" font-weight="bold" lengthAdjust="spacing" textLength="129" x="123" y="22.5332">pkg_competences</text></g><g id="elem_Gestion des comp&#233;tences"><ellipse cx="279.3975" cy="65.1795" fill="#F1F1F1" rx="101.3975" ry="22.6795" style="stroke:#181818;stroke-width:0.5;"/><text fill="#000000" font-family="sans-serif" font-size="14" lengthAdjust="spacing" textLength="164" x="197.3975" y="68.908">Gestion des comp&#233;tences</text></g><g id="elem_Gestion des niveaux de comp&#233;tences"><ellipse cx="279.5829" cy="151.8166" fill="#F1F1F1" rx="134.5829" ry="29.3166" style="stroke:#181818;stroke-width:0.5;"/><text fill="#000000" font-family="sans-serif" font-size="14" lengthAdjust="spacing" textLength="236" x="161.5829" y="155.5451">Gestion des niveaux de comp&#233;tences</text></g><g id="elem_Gestion des technologies"><ellipse cx="279.613" cy="238.8226" fill="#F1F1F1" rx="99.613" ry="22.3226" style="stroke:#181818;stroke-width:0.5;"/><text fill="#000000" font-family="sans-serif" font-size="14" lengthAdjust="spacing" textLength="160" x="199.613" y="242.5511">Gestion des technologies</text></g><g id="elem_Gestion des cat&#233;gories des technologies"><ellipse cx="279.5214" cy="327.8043" fill="#F1F1F1" rx="144.5214" ry="31.3043" style="stroke:#181818;stroke-width:0.5;"/><text fill="#000000" font-family="sans-serif" font-size="14" lengthAdjust="spacing" textLength="257" x="151.0214" y="331.5328">Gestion des cat&#233;gories des technologies</text></g><g id="elem_Ajouter"><ellipse cx="685.811" cy="268.9535" fill="#F1F1F1" rx="43.311" ry="15.4535" style="stroke:#181818;stroke-width:0.5;"/><text fill="#000000" font-family="sans-serif" font-size="14" lengthAdjust="spacing" textLength="45" x="662.8228" y="272.8329">Ajouter</text></g><g id="elem_Affecter la technologie &#224; une comp&#233;tence"><ellipse cx="685.8995" cy="73.7799" fill="#F1F1F1" rx="146.8995" ry="31.7799" style="stroke:#181818;stroke-width:0.5;"/><text fill="#000000" font-family="sans-serif" font-size="14" lengthAdjust="spacing" textLength="262" x="554.8995" y="77.5084">Affecter la technologie &#224; une comp&#233;tence</text></g><g id="elem_Affecter la technologie &#224; une cat&#233;gorie"><ellipse cx="685.859" cy="171.0718" fill="#F1F1F1" rx="138.359" ry="30.0718" style="stroke:#181818;stroke-width:0.5;"/><text fill="#000000" font-family="sans-serif" font-size="14" lengthAdjust="spacing" textLength="244" x="563.859" y="174.8003">Affecter la technologie &#224; une cat&#233;gorie</text></g><!--entity formateur--><g id="elem_formateur"><ellipse cx="39" cy="177.5" fill="#F1F1F1" rx="8" ry="8" style="stroke:#181818;stroke-width:0.5;"/><path d="M39,185.5 L39,212.5 M26,193.5 L52,193.5 M39,212.5 L26,227.5 M39,212.5 L52,227.5 " fill="none" style="stroke:#181818;stroke-width:0.5;"/><text fill="#000000" font-family="sans-serif" font-size="14" lengthAdjust="spacing" textLength="66" x="6" y="243.5332">Formateur</text></g><!--link formateur to Gestion des comp?tences--><g id="link_formateur_Gestion des comp&#233;tences"><path d="M58.02,168.8 C70.04,146.87 87.89,120.84 111,105 C133.32,89.7 154.9348,81.5301 181.1248,75.6701 " fill="none" id="formateur-to-Gestion des comp&#233;tences" style="stroke:#181818;stroke-width:1.0;"/><polygon fill="#181818" points="186.98,74.36,177.3238,72.4217,182.1006,75.4518,179.0706,80.2286,186.98,74.36" style="stroke:#181818;stroke-width:1.0;"/></g><!--link formateur to Gestion des niveaux de comp?tences--><g id="link_formateur_Gestion des niveaux de comp&#233;tences"><path d="M72.1,198.87 C81.69,196.23 92.25,193.41 102,191 C127.89,184.59 150.1914,179.4349 176.2514,173.6749 " fill="none" id="formateur-to-Gestion des niveaux de comp&#233;tences" style="stroke:#181818;stroke-width:1.0;"/><polygon fill="#181818" points="182.11,172.38,172.4588,170.4166,177.2278,173.4591,174.1854,178.2281,182.11,172.38" style="stroke:#181818;stroke-width:1.0;"/></g><!--link formateur to Gestion des technologies--><g id="link_formateur_Gestion des technologies"><path d="M72.17,212.18 C103,216.19 144.9599,221.6475 186.8599,227.0875 " fill="none" id="formateur-to-Gestion des technologies" style="stroke:#181818;stroke-width:1.0;"/><polygon fill="#181818" points="192.81,227.86,184.3999,222.7345,187.8516,227.2162,183.3699,230.6679,192.81,227.86" style="stroke:#181818;stroke-width:1.0;"/></g><!--link formateur to Gestion des cat?gories des technologies--><g id="link_formateur_Gestion des cat&#233;gories des technologies"><path d="M72.02,246.91 C83.3,258.6 96.75,270.56 111,279 C130.29,290.43 146.7016,297.5334 168.4216,304.4334 " fill="none" id="formateur-to-Gestion des cat&#233;gories des technologies" style="stroke:#181818;stroke-width:1.0;"/><polygon fill="#181818" points="174.14,306.25,166.7735,299.7128,169.3747,304.7362,164.3513,307.3373,174.14,306.25" style="stroke:#181818;stroke-width:1.0;"/></g><!--reverse link Gestion des technologies to Ajouter--><g id="link_Gestion des technologies_Ajouter"><path d="M380.3036,246.4037 C465.1336,252.6937 580.13,261.22 643.16,265.9 " fill="none" id="Gestion des technologies-backto-Ajouter" style="stroke:#181818;stroke-width:1.0;stroke-dasharray:7.0,7.0;"/><polygon fill="#181818" points="374.32,245.96,382.9996,250.6146,379.3063,246.3297,383.5911,242.6365,374.32,245.96" style="stroke:#181818;stroke-width:1.0;"/><text fill="#000000" font-family="sans-serif" font-size="13" lengthAdjust="spacing" textLength="53" x="455" y="249.4951">&#171;extend&#187;</text></g><!--reverse link Ajouter to Affecter la technologie ? une comp?tence--><g id="link_Ajouter_Affecter la technologie &#224; une comp&#233;tence"><path d="M639.9004,261.9826 C570.2304,249.7526 444.02,218.28 484,152 C501.91,122.3 533.15,103.88 565.77,92.46 " fill="none" id="Ajouter-backto-Affecter la technologie &#224; une comp&#233;tence" style="stroke:#181818;stroke-width:1.0;stroke-dasharray:7.0,7.0;"/><polygon fill="#181818" points="645.81,263.02,637.6371,257.5242,640.8853,262.1555,636.254,265.4037,645.81,263.02" style="stroke:#181818;stroke-width:1.0;"/><text fill="#000000" font-family="sans-serif" font-size="13" lengthAdjust="spacing" textLength="53" x="455" y="166.4951">&#171;extend&#187;</text></g><!--reverse link Ajouter to Affecter la technologie ? une cat?gorie--><g id="link_Ajouter_Affecter la technologie &#224; une cat&#233;gorie"><path d="M686,247.25 C686,233.3 686,218.52 686,201.34 " fill="none" id="Ajouter-backto-Affecter la technologie &#224; une cat&#233;gorie" style="stroke:#181818;stroke-width:1.0;stroke-dasharray:7.0,7.0;"/><polygon fill="#181818" points="686,253.25,690,244.25,686,248.25,682,244.25,686,253.25" style="stroke:#181818;stroke-width:1.0;"/><text fill="#000000" font-family="sans-serif" font-size="13" lengthAdjust="spacing" textLength="53" x="647.5" y="232.7451">&#171;extend&#187;</text></g><!--SRC=[bP5DJiCm44RtSufFtK0MZSIsYYAnWMDKbZDsJHDFv4nG9SHTsFOSkLYTbfz29Q0xZ-VDqtnsoqwXWXJyHj64n5Q3H28oLYNXGL9dbCS4Cy1z54IziLlZ6VtMhwrqFIj7omDUYF35ORciWTj77cOfcWpCyBG_qGN-W6DuPZFkylcwEMMxYTAA3_-0hT5fxoLbzd9uZlEBkYhBtBz_ab4v5LYXgdYNbspgciuRLPaBv_BZSa9hpYsOtZ36Rm4BuAVgIjTdf0lLAq1qWoZAxvyk3gRfGipSudXzjw03]--></g></svg>