<?xml version="1.0" encoding="us-ascii" standalone="no"?><svg xmlns="http://www.w3.org/2000/svg" xmlns:xlink="http://www.w3.org/1999/xlink" contentStyleType="text/css" height="369px" preserveAspectRatio="none" style="width:794px;height:369px;background:#FFFFFF;" version="1.1" viewBox="0 0 794 369" width="794px" zoomAndPan="magnify"><defs/><g><!--cluster pk_authentification--><g id="cluster_pk_authentification"><path d="M244.5,13.5 L380.5,13.5 A3.75,3.75 0 0 1 383,16 L390,37.1094 L784.5,37.1094 A2.5,2.5 0 0 1 787,39.6094 L787,290 A2.5,2.5 0 0 1 784.5,292.5 L244.5,292.5 A2.5,2.5 0 0 1 242,290 L242,16 A2.5,2.5 0 0 1 244.5,13.5 " fill="none" style="stroke:#000000;stroke-width:1.5;"/><line style="stroke:#000000;stroke-width:1.5;" x1="242" x2="390" y1="37.1094" y2="37.1094"/><text fill="#000000" font-family="sans-serif" font-size="14" font-weight="bold" lengthAdjust="spacing" textLength="135" x="246" y="30.0332">pk_authentification</text></g><g id="elem_Authentifier"><ellipse cx="672.1242" cy="212.6042" fill="#F1F1F1" rx="63.1242" ry="15.6042" style="stroke:#181818;stroke-width:0.5;"/><text fill="#000000" font-family="sans-serif" font-size="14" lengthAdjust="spacing" textLength="72" x="633.1242" y="217.1208">Authentifier</text></g><g id="elem_Afficher profil"><ellipse cx="356.9277" cy="168.5855" fill="#F1F1F1" rx="68.4277" ry="16.0855" style="stroke:#181818;stroke-width:0.5;"/><text fill="#000000" font-family="sans-serif" font-size="14" lengthAdjust="spacing" textLength="83" x="312.4277" y="173.1021">Afficher profil</text></g><g id="elem_Modifier profil"><ellipse cx="357.1119" cy="101.7224" fill="#F1F1F1" rx="69.1119" ry="16.2224" style="stroke:#181818;stroke-width:0.5;"/><text fill="#000000" font-family="sans-serif" font-size="14" lengthAdjust="spacing" textLength="85" x="311.6119" y="106.239">Modifier profil</text></g><g id="elem_Changer le mot de passe"><ellipse cx="672.1681" cy="71.7336" fill="#F1F1F1" rx="99.1681" ry="22.2336" style="stroke:#181818;stroke-width:0.5;"/><text fill="#000000" font-family="sans-serif" font-size="14" lengthAdjust="spacing" textLength="159" x="592.6681" y="75.4621">Changer le mot de passe</text></g><g id="elem_Initialiser le mot de passe"><ellipse cx="357.1681" cy="241.7336" fill="#F1F1F1" rx="99.1681" ry="22.2336" style="stroke:#181818;stroke-width:0.5;"/><text fill="#000000" font-family="sans-serif" font-size="14" lengthAdjust="spacing" textLength="159" x="277.6681" y="245.4621">Initialiser le mot de passe</text></g><!--entity utilisateur--><g id="elem_utilisateur"><ellipse cx="164" cy="129" fill="#F1F1F1" rx="8" ry="8" style="stroke:#181818;stroke-width:0.5;"/><path d="M164,137 L164,164 M151,145 L177,145 M164,164 L151,179 M164,164 L177,179 " fill="none" style="stroke:#181818;stroke-width:0.5;"/><text fill="#000000" font-family="sans-serif" font-size="14" lengthAdjust="spacing" textLength="62" x="133" y="195.0332">Utilisateur</text></g><!--entity formateur--><g id="elem_formateur"><ellipse cx="39" cy="127" fill="#F1F1F1" rx="8" ry="8" style="stroke:#181818;stroke-width:0.5;"/><path d="M39,135 L39,162 M26,143 L52,143 M39,162 L26,177 M39,162 L52,177 " fill="none" style="stroke:#181818;stroke-width:0.5;"/><text fill="#000000" font-family="sans-serif" font-size="14" lengthAdjust="spacing" textLength="66" x="6" y="193.0332">Formateur</text></g><!--entity apprenant--><g id="elem_apprenant"><ellipse cx="39" cy="14" fill="#F1F1F1" rx="8" ry="8" style="stroke:#181818;stroke-width:0.5;"/><path d="M39,22 L39,49 M26,30 L52,30 M39,49 L26,64 M39,49 L52,64 " fill="none" style="stroke:#181818;stroke-width:0.5;"/><text fill="#000000" font-family="sans-serif" font-size="14" lengthAdjust="spacing" textLength="66" x="6" y="80.0332">Apprenant</text></g><!--entity admin--><g id="elem_admin"><ellipse cx="39" cy="240" fill="#F1F1F1" rx="8" ry="8" style="stroke:#181818;stroke-width:0.5;"/><path d="M39,248 L39,275 M26,256 L52,256 M39,275 L26,290 M39,275 L52,290 " fill="none" style="stroke:#181818;stroke-width:0.5;"/><text fill="#000000" font-family="sans-serif" font-size="14" lengthAdjust="spacing" textLength="39" x="19.5" y="306.0332">Admin</text></g><!--link formateur to utilisateur--><g id="link_formateur_utilisateur"><path d="M72.32,158.03 C90.97,158.33 96.2724,158.4153 114.5924,158.7153 " fill="none" id="formateur-to-utilisateur" style="stroke:#181818;stroke-width:1.0;"/><polygon fill="none" points="132.59,159.01,114.6907,152.7161,114.4942,164.7145,132.59,159.01" style="stroke:#181818;stroke-width:1.0;"/></g><!--link apprenant to utilisateur--><g id="link_apprenant_utilisateur"><path d="M72.32,74.72 C90.97,92.15 101.1186,101.6601 119.4386,118.7801 " fill="none" id="apprenant-to-utilisateur" style="stroke:#181818;stroke-width:1.0;"/><polygon fill="none" points="132.59,131.07,123.5353,114.3963,115.342,123.1639,132.59,131.07" style="stroke:#181818;stroke-width:1.0;"/></g><!--link admin to utilisateur--><g id="link_admin_utilisateur"><path d="M58.68,253.64 C78.3,235.93 96.1168,219.8592 119.2768,198.9592 " fill="none" id="admin-to-utilisateur" style="stroke:#181818;stroke-width:1.0;"/><polygon fill="none" points="132.64,186.9,115.257,194.5048,123.2965,203.4136,132.64,186.9" style="stroke:#181818;stroke-width:1.0;"/></g><!--link utilisateur to Authentifier--><g id="link_utilisateur_Authentifier"><path d="M175.58,198.69 C185.56,227.2 203.63,263.79 234,281.5 C372.66,362.38 570.9188,268.0944 640.9788,229.6844 " fill="none" id="utilisateur-to-Authentifier" style="stroke:#181818;stroke-width:1.0;"/><polygon fill="#181818" points="646.24,226.8,636.4253,227.6192,641.8557,229.2037,640.2712,234.6341,646.24,226.8" style="stroke:#181818;stroke-width:1.0;"/></g><!--link utilisateur to Afficher profil--><g id="link_utilisateur_Afficher profil"><path d="M195.26,160.93 C220.51,162.12 251.4166,163.5778 283.4866,165.0878 " fill="none" id="utilisateur-to-Afficher profil" style="stroke:#181818;stroke-width:1.0;"/><polygon fill="#181818" points="289.48,165.37,280.6781,160.9511,284.4855,165.1348,280.3018,168.9423,289.48,165.37" style="stroke:#181818;stroke-width:1.0;"/></g><!--link utilisateur to Modifier profil--><g id="link_utilisateur_Modifier profil"><path d="M195.3,147.18 C204.74,143.53 215.24,139.67 225,136.5 C252.32,127.64 277.5336,120.7527 302.5336,114.4227 " fill="none" id="utilisateur-to-Modifier profil" style="stroke:#181818;stroke-width:1.0;"/><polygon fill="#181818" points="308.35,112.95,298.6435,111.2815,303.503,114.1773,300.6071,119.0367,308.35,112.95" style="stroke:#181818;stroke-width:1.0;"/></g><!--reverse link Modifier profil to Changer le mot de passe--><g id="link_Modifier profil_Changer le mot de passe"><path d="M426.9326,94.8972 C472.8126,90.4972 529.66,85.05 580.86,80.14 " fill="none" id="Modifier profil-backto-Changer le mot de passe" style="stroke:#181818;stroke-width:1.0;stroke-dasharray:7.0,7.0;"/><polygon fill="#181818" points="420.96,95.47,430.3008,98.5926,425.9372,94.9927,429.537,90.6291,420.96,95.47" style="stroke:#181818;stroke-width:1.0;"/><text fill="#000000" font-family="sans-serif" font-size="13" lengthAdjust="spacing" textLength="53" x="488" y="80.9951">&#171;extend&#187;</text></g><!--link admin to Initialiser le mot de passe--><g id="link_admin_Initialiser le mot de passe"><path d="M58.82,268.77 C98.55,265.13 187.2551,256.9885 259.1451,250.3885 " fill="none" id="admin-to-Initialiser le mot de passe" style="stroke:#181818;stroke-width:1.0;"/><polygon fill="#181818" points="265.12,249.84,255.792,246.6796,260.1409,250.2971,256.5234,254.6461,265.12,249.84" style="stroke:#181818;stroke-width:1.0;"/></g><!--link Afficher profil to Authentifier--><g id="link_Afficher profil_Authentifier"><path d="M415.98,176.66 C437.92,179.74 463.11,183.28 486,186.5 C530,192.69 573.9484,198.8652 610.8184,204.0452 " fill="none" id="Afficher profil-to-Authentifier" style="stroke:#181818;stroke-width:1.0;stroke-dasharray:7.0,7.0;"/><polygon fill="#181818" points="616.76,204.88,608.404,199.6668,611.8086,204.1844,607.291,207.589,616.76,204.88" style="stroke:#181818;stroke-width:1.0;"/><text fill="#000000" font-family="sans-serif" font-size="13" lengthAdjust="spacing" textLength="55" x="487" y="182.9951">&#171;include&#187;</text></g><!--link Modifier profil to Authentifier--><g id="link_Modifier profil_Authentifier"><path d="M397.13,114.61 C415.08,120.63 436.63,127.9 456,134.5 C494.71,147.7 504.51,150.65 543,164.5 C575.05,176.03 605.7724,187.5858 631.5224,197.3858 " fill="none" id="Modifier profil-to-Authentifier" style="stroke:#181818;stroke-width:1.0;stroke-dasharray:7.0,7.0;"/><polygon fill="#181818" points="637.13,199.52,630.1413,192.5803,632.457,197.7415,627.2958,200.0572,637.13,199.52" style="stroke:#181818;stroke-width:1.0;"/><text fill="#000000" font-family="sans-serif" font-size="13" lengthAdjust="spacing" textLength="55" x="487" y="141.9951">&#171;include&#187;</text></g><!--link Initialiser le mot de passe to Authentifier--><g id="link_Initialiser le mot de passe_Authentifier"><path d="M451.91,248.05 C481.18,248.75 513.51,248.13 543,244.5 C573.69,240.72 601.8512,233.7142 627.0512,226.3442 " fill="none" id="Initialiser le mot de passe-to-Authentifier" style="stroke:#181818;stroke-width:1.0;stroke-dasharray:7.0,7.0;"/><polygon fill="#181818" points="632.81,224.66,623.049,223.3471,628.011,226.0635,625.2947,231.0255,632.81,224.66" style="stroke:#181818;stroke-width:1.0;"/><text fill="#000000" font-family="sans-serif" font-size="13" lengthAdjust="spacing" textLength="55" x="487" y="240.9951">&#171;include&#187;</text></g><!--SRC=[ZL9DQuGm4BtdLmnxwNfGw7KHOIaKzj1ZpsKm4nrMan17McZxtvk8sW-bxSsPz-Pz43io0k8WSDCAQ0vK2pkhbC9QN817uOu751e3u03ZvpWJxbteLzWimmoUlGzaqKe2SHaMKFTi9o1zABKUGvw_LT-jLfqjDAbirg0yrbTi2Fpr2KTfoGeRhZ6rWrUbu2iTSksURLx1yRnIAMGRLcH4YeawBGNmmHdkCjXbFJWzYImijRE3iaY-1HplMhHD13g2tiLtYB5n62Y34vGblGXPNLKfpbmt9hrO5iRekdCMYIdLDYeKnS-IamNRkXirHO-zcF-w-YtFtmBlCR2w0Uk4vd_HcRdi2GxJ-lQWFW00]--></g></svg>