<?xml version="1.0" encoding="us-ascii" standalone="no"?><svg xmlns="http://www.w3.org/2000/svg" xmlns:xlink="http://www.w3.org/1999/xlink" contentStyleType="text/css" height="400px" preserveAspectRatio="none" style="width:901px;height:400px;background:#FFFFFF;" version="1.1" viewBox="0 0 901 400" width="901px" zoomAndPan="magnify"><defs/><g><!--cluster pkg_notifications--><g id="cluster_pkg_notifications"><path d="M118.5,6 L240.5,6 A3.75,3.75 0 0 1 243,8.5 L250,29.6094 L891.5,29.6094 A2.5,2.5 0 0 1 894,32.1094 L894,390.5 A2.5,2.5 0 0 1 891.5,393 L118.5,393 A2.5,2.5 0 0 1 116,390.5 L116,8.5 A2.5,2.5 0 0 1 118.5,6 " fill="none" style="stroke:#000000;stroke-width:1.5;"/><line style="stroke:#000000;stroke-width:1.5;" x1="116" x2="250" y1="29.6094" y2="29.6094"/><text fill="#000000" font-family="sans-serif" font-size="14" font-weight="bold" lengthAdjust="spacing" textLength="121" x="120" y="22.5332">pkg_notifications</text></g><g id="elem_Envoyer notification"><ellipse cx="232.5066" cy="131.2013" fill="#F1F1F1" rx="84.0066" ry="19.2013" style="stroke:#181818;stroke-width:0.5;"/><text fill="#000000" font-family="sans-serif" font-size="14" lengthAdjust="spacing" textLength="124" x="170.5066" y="134.9298">Envoyer notification</text></g><g id="elem_&#224; un apprenant"><ellipse cx="494.376" cy="206.0752" fill="#F1F1F1" rx="73.376" ry="17.0752" style="stroke:#181818;stroke-width:0.5;"/><text fill="#000000" font-family="sans-serif" font-size="14" lengthAdjust="spacing" textLength="97" x="442.876" y="210.5918">&#224; un apprenant</text></g><g id="elem_au membres d'une &#233;quipe"><ellipse cx="494.3975" cy="131.1795" fill="#F1F1F1" rx="101.3975" ry="22.6795" style="stroke:#181818;stroke-width:0.5;"/><text fill="#000000" font-family="sans-serif" font-size="14" lengthAdjust="spacing" textLength="164" x="412.3975" y="134.908">au membres d'une &#233;quipe</text></g><g id="elem_&#224; un group"><ellipse cx="494.4074" cy="58.0891" fill="#F1F1F1" rx="60.9074" ry="15.5891" style="stroke:#181818;stroke-width:0.5;"/><text fill="#000000" font-family="sans-serif" font-size="14" lengthAdjust="spacing" textLength="69" x="456.9074" y="62.6057">&#224; un group</text></g><g id="elem_Consulter les notifications"><ellipse cx="232.5042" cy="354.0008" fill="#F1F1F1" rx="100.5042" ry="22.5008" style="stroke:#181818;stroke-width:0.5;"/><text fill="#000000" font-family="sans-serif" font-size="14" lengthAdjust="spacing" textLength="162" x="151.5042" y="357.7293">Consulter les notifications</text></g><g id="elem_Consulter une notification"><ellipse cx="494.5583" cy="353.9117" fill="#F1F1F1" rx="100.0583" ry="22.4117" style="stroke:#181818;stroke-width:0.5;"/><text fill="#000000" font-family="sans-serif" font-size="14" lengthAdjust="spacing" textLength="161" x="414.0583" y="357.6402">Consulter une notification</text></g><g id="elem_marqu&#233; comme vue"><ellipse cx="494.5066" cy="277.2013" fill="#F1F1F1" rx="84.0066" ry="19.2013" style="stroke:#181818;stroke-width:0.5;"/><text fill="#000000" font-family="sans-serif" font-size="14" lengthAdjust="spacing" textLength="124" x="432.5066" y="280.9298">marqu&#233; comme vue</text></g><g id="elem_marqu&#233; comme n'est pas vue"><ellipse cx="766.8903" cy="352.0781" fill="#F1F1F1" rx="110.8903" ry="24.5781" style="stroke:#181818;stroke-width:0.5;"/><text fill="#000000" font-family="sans-serif" font-size="14" lengthAdjust="spacing" textLength="185" x="674.3903" y="355.8066">marqu&#233; comme n'est pas vue</text></g><!--entity formateur--><g id="elem_formateur"><ellipse cx="39" cy="100.5" fill="#F1F1F1" rx="8" ry="8" style="stroke:#181818;stroke-width:0.5;"/><path d="M39,108.5 L39,135.5 M26,116.5 L52,116.5 M39,135.5 L26,150.5 M39,135.5 L52,150.5 " fill="none" style="stroke:#181818;stroke-width:0.5;"/><text fill="#000000" font-family="sans-serif" font-size="14" lengthAdjust="spacing" textLength="66" x="6" y="166.5332">Formateur</text></g><!--entity apprenant--><g id="elem_apprenant"><ellipse cx="39" cy="323.5" fill="#F1F1F1" rx="8" ry="8" style="stroke:#181818;stroke-width:0.5;"/><path d="M39,331.5 L39,358.5 M26,339.5 L52,339.5 M39,358.5 L26,373.5 M39,358.5 L52,373.5 " fill="none" style="stroke:#181818;stroke-width:0.5;"/><text fill="#000000" font-family="sans-serif" font-size="14" lengthAdjust="spacing" textLength="66" x="6" y="389.5332">Apprenant</text></g><!--link formateur to Envoyer notification--><g id="link_formateur_Envoyer notification"><path d="M72.05,131 C92.92,131 121.18,131 148.11,131 " fill="none" id="formateur-Envoyer notification" style="stroke:#181818;stroke-width:1.0;"/></g><!--reverse link Envoyer notification to ? un apprenant--><g id="link_Envoyer notification_&#224; un apprenant"><path d="M290.9449,147.5729 C338.3349,161.2429 402.1,179.63 447.58,192.75 " fill="none" id="Envoyer notification-backto-&#224; un apprenant" style="stroke:#181818;stroke-width:1.0;stroke-dasharray:7.0,7.0;"/><polygon fill="#181818" points="285.18,145.91,292.7188,152.2477,289.9841,147.2958,294.936,144.5611,285.18,145.91" style="stroke:#181818;stroke-width:1.0;"/></g><!--reverse link Envoyer notification to au membres d'une ?quipe--><g id="link_Envoyer notification_au membres d'une &#233;quipe"><path d="M322.84,131 C347.05,131 367.75,131 392.9,131 " fill="none" id="Envoyer notification-backto-au membres d'une &#233;quipe" style="stroke:#181818;stroke-width:1.0;stroke-dasharray:7.0,7.0;"/><polygon fill="#181818" points="316.84,131,325.84,135,321.84,131,325.84,127,316.84,131" style="stroke:#181818;stroke-width:1.0;"/></g><!--reverse link Envoyer notification to ? un group--><g id="link_Envoyer notification_&#224; un group"><path d="M291.5764,114.6973 C340.8064,100.8673 407.75,82.08 452.79,69.43 " fill="none" id="Envoyer notification-backto-&#224; un group" style="stroke:#181818;stroke-width:1.0;stroke-dasharray:7.0,7.0;"/><polygon fill="#181818" points="285.8,116.32,295.5464,117.7368,290.6137,114.9677,293.3828,110.035,285.8,116.32" style="stroke:#181818;stroke-width:1.0;"/></g><!--link apprenant to Consulter les notifications--><g id="link_apprenant_Consulter les notifications"><path d="M72.05,354 C88.77,354 110.23,354 131.95,354 " fill="none" id="apprenant-Consulter les notifications" style="stroke:#181818;stroke-width:1.0;"/></g><!--reverse link Consulter les notifications to Consulter une notification--><g id="link_Consulter les notifications_Consulter une notification"><path d="M339.28,354 C359.33,354 374.39,354 394.42,354 " fill="none" id="Consulter les notifications-backto-Consulter une notification" style="stroke:#181818;stroke-width:1.0;stroke-dasharray:7.0,7.0;"/><polygon fill="#181818" points="333.28,354,342.28,358,338.28,354,342.28,350,333.28,354" style="stroke:#181818;stroke-width:1.0;"/></g><!--reverse link Consulter une notification to marqu? comme vue--><g id="link_Consulter une notification_marqu&#233; comme vue"><path d="M494.5,325.44 C494.5,313.67 494.5,307.91 494.5,296.14 " fill="none" id="Consulter une notification-backto-marqu&#233; comme vue" style="stroke:#181818;stroke-width:1.0;stroke-dasharray:7.0,7.0;"/><polygon fill="#181818" points="494.5,331.44,498.5,322.44,494.5,326.44,490.5,322.44,494.5,331.44" style="stroke:#181818;stroke-width:1.0;"/></g><!--reverse link Consulter une notification to marqu? comme n'est pas vue--><g id="link_Consulter une notification_marqu&#233; comme n'est pas vue"><path d="M600.6898,353.2248 C620.5898,353.0748 635.62,352.96 655.87,352.81 " fill="none" id="Consulter une notification-backto-marqu&#233; comme n'est pas vue" style="stroke:#181818;stroke-width:1.0;stroke-dasharray:7.0,7.0;"/><polygon fill="#181818" points="594.69,353.27,603.7199,357.202,599.6899,353.2323,603.6596,349.2023,594.69,353.27" style="stroke:#181818;stroke-width:1.0;"/></g><!--SRC=[ZL9BJiCm4Dtx54_T95cq4bl41Y6uHZKaas0r_dHYLqA8kx3jEN8nxD0IeWgeT-CtxpDZzzm610VHtKj0euNhe9rLIb4TdE39YQ70KK03sdDn0k-z5xPaGmRfN2XFzOuwXjzrM-k2RdLDMNJ0crAOLR1Uetoq1_VAWf-D5P3wVe7kDXkKumUYdIt_9r24OVCiFA0fecMCnttKdglhd3fnqLSv_RVdbFuXJHNxaAXzKbuCMsNXlt1y6SmjETOYmLBX0avyb8Pa7ySZQcSCun3v2jO5pHOy1FZqYfF0UrfdEaKcykbhk1RK66rnYzLqVRDIdm00]--></g></svg>