<?xml version="1.0" encoding="us-ascii" standalone="no"?><svg xmlns="http://www.w3.org/2000/svg" xmlns:xlink="http://www.w3.org/1999/xlink" contentStyleType="text/css" height="352px" preserveAspectRatio="none" style="width:666px;height:352px;background:#FFFFFF;" version="1.1" viewBox="0 0 666 352" width="666px" zoomAndPan="magnify"><defs/><g><!--cluster pkg_projets--><g id="cluster_pkg_projets"><path d="M118.5,6 L203.5,6 A3.75,3.75 0 0 1 206,8.5 L213,29.6094 L656.5,29.6094 A2.5,2.5 0 0 1 659,32.1094 L659,342.5 A2.5,2.5 0 0 1 656.5,345 L118.5,345 A2.5,2.5 0 0 1 116,342.5 L116,8.5 A2.5,2.5 0 0 1 118.5,6 " fill="none" style="stroke:#000000;stroke-width:1.5;"/><line style="stroke:#000000;stroke-width:1.5;" x1="116" x2="213" y1="29.6094" y2="29.6094"/><text fill="#000000" font-family="sans-serif" font-size="14" font-weight="bold" lengthAdjust="spacing" textLength="84" x="120" y="22.5332">pkg_projets</text></g><g id="elem_Gestion des projets"><ellipse cx="220.0873" cy="69.1175" fill="#F1F1F1" rx="83.5873" ry="19.1175" style="stroke:#181818;stroke-width:0.5;"/><text fill="#000000" font-family="sans-serif" font-size="14" lengthAdjust="spacing" textLength="123" x="158.5873" y="72.846">Gestion des projets</text></g><g id="elem_Ajouter projet"><ellipse cx="505.6119" cy="58.2224" fill="#F1F1F1" rx="69.1119" ry="16.2224" style="stroke:#181818;stroke-width:0.5;"/><text fill="#000000" font-family="sans-serif" font-size="14" lengthAdjust="spacing" textLength="85" x="460.1119" y="62.739">Ajouter projet</text></g><g id="elem_Affectation de projet aux apprenants"><ellipse cx="505.29" cy="138.158" fill="#F1F1F1" rx="131.29" ry="28.658" style="stroke:#181818;stroke-width:0.5;"/><text fill="#000000" font-family="sans-serif" font-size="14" lengthAdjust="spacing" textLength="229" x="390.79" y="141.8865">Affectation de projet aux apprenants</text></g><g id="elem_Gestion des t&#226;ches"><ellipse cx="220.169" cy="150.0338" fill="#F1F1F1" rx="83.169" ry="19.0338" style="stroke:#181818;stroke-width:0.5;"/><text fill="#000000" font-family="sans-serif" font-size="14" lengthAdjust="spacing" textLength="122" x="159.169" y="153.7623">Gestion des t&#226;ches</text></g><g id="elem_Ajouter t&#226;che"><ellipse cx="505.2688" cy="218.1538" fill="#F1F1F1" rx="68.7688" ry="16.1538" style="stroke:#181818;stroke-width:0.5;"/><text fill="#000000" font-family="sans-serif" font-size="14" lengthAdjust="spacing" textLength="84" x="460.2688" y="222.6704">Ajouter t&#226;che</text></g><g id="elem_Consulter ses t&#226;ches"><ellipse cx="219.8193" cy="292.9639" fill="#F1F1F1" rx="87.8193" ry="19.9639" style="stroke:#181818;stroke-width:0.5;"/><text fill="#000000" font-family="sans-serif" font-size="14" lengthAdjust="spacing" textLength="133" x="153.3193" y="296.6924">Consulter ses t&#226;ches</text></g><g id="elem_filtrer par projet"><ellipse cx="219.876" cy="221.0752" fill="#F1F1F1" rx="73.376" ry="17.0752" style="stroke:#181818;stroke-width:0.5;"/><text fill="#000000" font-family="sans-serif" font-size="14" lengthAdjust="spacing" textLength="97" x="168.376" y="225.5918">filtrer par projet</text></g><g id="elem_Affectation de la t&#226;che &#224; un apprenant"><ellipse cx="505.4138" cy="298.8828" fill="#F1F1F1" rx="137.4138" ry="29.8828" style="stroke:#181818;stroke-width:0.5;"/><text fill="#000000" font-family="sans-serif" font-size="14" lengthAdjust="spacing" textLength="242" x="384.4138" y="302.6113">Affectation de la t&#226;che &#224; un apprenant</text></g><!--entity formateur--><g id="elem_formateur"><ellipse cx="39" cy="79.5" fill="#F1F1F1" rx="8" ry="8" style="stroke:#181818;stroke-width:0.5;"/><path d="M39,87.5 L39,114.5 M26,95.5 L52,95.5 M39,114.5 L26,129.5 M39,114.5 L52,129.5 " fill="none" style="stroke:#181818;stroke-width:0.5;"/><text fill="#000000" font-family="sans-serif" font-size="14" lengthAdjust="spacing" textLength="66" x="6" y="145.5332">Formateur</text></g><!--entity apprenant--><g id="elem_apprenant"><ellipse cx="39" cy="262.5" fill="#F1F1F1" rx="8" ry="8" style="stroke:#181818;stroke-width:0.5;"/><path d="M39,270.5 L39,297.5 M26,278.5 L52,278.5 M39,297.5 L26,312.5 M39,297.5 L52,312.5 " fill="none" style="stroke:#181818;stroke-width:0.5;"/><text fill="#000000" font-family="sans-serif" font-size="14" lengthAdjust="spacing" textLength="66" x="6" y="328.5332">Apprenant</text></g><!--reverse link Gestion des projets to Ajouter projet--><g id="link_Gestion des projets_Ajouter projet"><path d="M308.6155,65.5983 C351.3055,63.9483 396.94,62.17 437.3,60.61 " fill="none" id="Gestion des projets-backto-Ajouter projet" style="stroke:#181818;stroke-width:1.0;stroke-dasharray:7.0,7.0;"/><polygon fill="#181818" points="302.62,65.83,311.7678,69.4794,307.6163,65.6369,311.4588,61.4854,302.62,65.83" style="stroke:#181818;stroke-width:1.0;"/></g><!--link Affectation de projet aux apprenants to Ajouter projet--><g id="link_Affectation de projet aux apprenants_Ajouter projet"><path d="M505.5,109.25 C505.5,97.51 505.5,91.76 505.5,80.02 " fill="none" id="Affectation de projet aux apprenants-to-Ajouter projet" style="stroke:#181818;stroke-width:1.0;stroke-dasharray:7.0,7.0;"/><polygon fill="#181818" points="505.5,74.02,501.5,83.02,505.5,79.02,509.5,83.02,505.5,74.02" style="stroke:#181818;stroke-width:1.0;"/></g><!--reverse link Gestion des t?ches to Ajouter t?che--><g id="link_Gestion des t&#226;ches_Ajouter t&#226;che"><path d="M283.8646,165.079 C336.4146,177.679 407.67,194.77 456.97,206.6 " fill="none" id="Gestion des t&#226;ches-backto-Ajouter t&#226;che" style="stroke:#181818;stroke-width:1.0;stroke-dasharray:7.0,7.0;"/><polygon fill="#181818" points="278.03,163.68,285.8493,169.6682,282.8922,164.8458,287.7146,161.8887,278.03,163.68" style="stroke:#181818;stroke-width:1.0;"/></g><!--reverse link Gestion des t?ches to Consulter ses t?ches--><g id="link_Gestion des t&#226;ches_Consulter ses t&#226;ches"><path d="M141.9918,161.1031 C117.6718,168.5331 99.93,180.01 90,203.5 C80.56,225.84 87.32,242.34 108,255 C124.02,264.81 142.9,272.46 160.55,278.24 " fill="none" id="Gestion des t&#226;ches-backto-Consulter ses t&#226;ches" style="stroke:#181818;stroke-width:1.0;stroke-dasharray:7.0,7.0;"/><polygon fill="#181818" points="147.73,159.35,137.954,158.1542,142.9482,160.8109,140.2914,165.8051,147.73,159.35" style="stroke:#181818;stroke-width:1.0;"/></g><!--reverse link Consulter ses t?ches to filtrer par projet--><g id="link_Consulter ses t&#226;ches_filtrer par projet"><path d="M220,266.75 C220,255.29 220,249.84 220,238.38 " fill="none" id="Consulter ses t&#226;ches-backto-filtrer par projet" style="stroke:#181818;stroke-width:1.0;stroke-dasharray:7.0,7.0;"/><polygon fill="#181818" points="220,272.75,224,263.75,220,267.75,216,263.75,220,272.75" style="stroke:#181818;stroke-width:1.0;"/></g><!--link Affectation de la t?che ? un apprenant to Ajouter t?che--><g id="link_Affectation de la t&#226;che &#224; un apprenant_Ajouter t&#226;che"><path d="M505.5,268.94 C505.5,257.4 505.5,251.86 505.5,240.32 " fill="none" id="Affectation de la t&#226;che &#224; un apprenant-to-Ajouter t&#226;che" style="stroke:#181818;stroke-width:1.0;stroke-dasharray:7.0,7.0;"/><polygon fill="#181818" points="505.5,234.32,501.5,243.32,505.5,239.32,509.5,243.32,505.5,234.32" style="stroke:#181818;stroke-width:1.0;"/></g><!--link formateur to Gestion des projets--><g id="link_formateur_Gestion des projets"><path d="M72,102.67 C96.54,97.05 125.2214,90.4794 154.6514,83.7394 " fill="none" id="formateur-to-Gestion des projets" style="stroke:#181818;stroke-width:1.0;"/><polygon fill="#181818" points="160.5,82.4,150.8342,80.5101,155.6262,83.5162,152.6201,88.3082,160.5,82.4" style="stroke:#181818;stroke-width:1.0;"/></g><!--link formateur to Gestion des t?ches--><g id="link_formateur_Gestion des t&#226;ches"><path d="M72,117.15 C96.34,122.59 124.6544,128.9216 153.9244,135.4616 " fill="none" id="formateur-to-Gestion des t&#226;ches" style="stroke:#181818;stroke-width:1.0;"/><polygon fill="#181818" points="159.78,136.77,151.8688,130.9037,154.9003,135.6797,150.1243,138.7112,159.78,136.77" style="stroke:#181818;stroke-width:1.0;"/></g><!--link apprenant to Consulter ses t?ches--><g id="link_apprenant_Consulter ses t&#226;ches"><path d="M72,293 C88.9,293 104.53,293 125.97,293 " fill="none" id="apprenant-to-Consulter ses t&#226;ches" style="stroke:#181818;stroke-width:1.0;"/><polygon fill="#181818" points="131.97,293,122.97,289,126.97,293,122.97,297,131.97,293" style="stroke:#181818;stroke-width:1.0;"/></g><!--SRC=[XL91QiCm4Bph5KCkTGunz5fAm1JQPvJ5NZbE74b8QoYK_gNqA_bO9KUnspgXnzsPqSn8wbaBnC9txKxGT9vhwQnHIb4jrkFP-YC93nuKe2z31YldF1ioaa2w357hg3vGot27zjLvksS9U5SAA5uufFFHS416rdWiInJLtWx2Fc_NIEnAwvY7iY93eE5jTeloShjGBxpaz5Nl-A_NUNlskigET1HFreIXJ_pm0qkQwyWeqbqlFWMYETIoKKzPXTCd1ZFN-jqgvrGfwFG8s6osjsxq7zwKDF8cov5tgwpw09IwWx72-RDO3MgEdS43LkFwVgM-0G00]--></g></svg>