<?xml version="1.0" encoding="us-ascii" standalone="no"?><svg xmlns="http://www.w3.org/2000/svg" xmlns:xlink="http://www.w3.org/1999/xlink" contentStyleType="text/css" height="638px" preserveAspectRatio="none" style="width:1201px;height:638px;background:#FFFFFF;" version="1.1" viewBox="0 0 1201 638" width="1201px" zoomAndPan="magnify"><defs/><g><!--cluster pkg_projets--><g id="cluster_pkg_projets"><path d="M118.5,6 L203.5,6 A3.75,3.75 0 0 1 206,8.5 L213,29.6094 L1191.5,29.6094 A2.5,2.5 0 0 1 1194,32.1094 L1194,628.5 A2.5,2.5 0 0 1 1191.5,631 L118.5,631 A2.5,2.5 0 0 1 116,628.5 L116,8.5 A2.5,2.5 0 0 1 118.5,6 " fill="none" style="stroke:#000000;stroke-width:1.5;"/><line style="stroke:#000000;stroke-width:1.5;" x1="116" x2="213" y1="29.6094" y2="29.6094"/><text fill="#000000" font-family="sans-serif" font-size="14" font-weight="bold" lengthAdjust="spacing" textLength="84" x="120" y="22.5332">pkg_projets</text></g><g id="elem_Gestion des projets"><ellipse cx="220.0873" cy="76.1175" fill="#F1F1F1" rx="83.5873" ry="19.1175" style="stroke:#181818;stroke-width:0.5;"/><text fill="#000000" font-family="sans-serif" font-size="14" lengthAdjust="spacing" textLength="123" x="158.5873" y="79.846">Gestion des projets</text></g><g id="elem_Ajouter projet"><ellipse cx="505.6119" cy="58.2224" fill="#F1F1F1" rx="69.1119" ry="16.2224" style="stroke:#181818;stroke-width:0.5;"/><text fill="#000000" font-family="sans-serif" font-size="14" lengthAdjust="spacing" textLength="85" x="460.1119" y="62.739">Ajouter projet</text></g><g id="elem_Affectation de projet aux apprenants"><ellipse cx="834.29" cy="71.158" fill="#F1F1F1" rx="131.29" ry="28.658" style="stroke:#181818;stroke-width:0.5;"/><text fill="#000000" font-family="sans-serif" font-size="14" lengthAdjust="spacing" textLength="229" x="719.79" y="74.8865">Affectation de projet aux apprenants</text></g><g id="elem_filtrer par &#233;quipe"><ellipse cx="1101.9763" cy="71.0953" fill="#F1F1F1" rx="75.9763" ry="17.5953" style="stroke:#181818;stroke-width:0.5;"/><text fill="#000000" font-family="sans-serif" font-size="14" lengthAdjust="spacing" textLength="104" x="1047.0467" y="75.5957">filtrer par &#233;quipe</text></g><g id="elem_Gestion des t&#226;ches"><ellipse cx="220.169" cy="337.0338" fill="#F1F1F1" rx="83.169" ry="19.0338" style="stroke:#181818;stroke-width:0.5;"/><text fill="#000000" font-family="sans-serif" font-size="14" lengthAdjust="spacing" textLength="122" x="159.169" y="340.7623">Gestion des t&#226;ches</text></g><g id="elem_Ajouter t&#226;che"><ellipse cx="505.2688" cy="599.1538" fill="#F1F1F1" rx="68.7688" ry="16.1538" style="stroke:#181818;stroke-width:0.5;"/><text fill="#000000" font-family="sans-serif" font-size="14" lengthAdjust="spacing" textLength="84" x="460.2688" y="603.6704">Ajouter t&#226;che</text></g><g id="elem_Consulter ses t&#226;ches"><ellipse cx="219.8193" cy="262.9639" fill="#F1F1F1" rx="87.8193" ry="19.9639" style="stroke:#181818;stroke-width:0.5;"/><text fill="#000000" font-family="sans-serif" font-size="14" lengthAdjust="spacing" textLength="133" x="153.3193" y="266.6924">Consulter ses t&#226;ches</text></g><g id="elem_filtrer par projet"><ellipse cx="505.376" cy="292.0752" fill="#F1F1F1" rx="73.376" ry="17.0752" style="stroke:#181818;stroke-width:0.5;"/><text fill="#000000" font-family="sans-serif" font-size="14" lengthAdjust="spacing" textLength="97" x="453.876" y="296.5918">filtrer par projet</text></g><g id="elem_filtrer t&#226;che par &#233;quipe"><ellipse cx="505.6309" cy="218.8262" fill="#F1F1F1" rx="92.1309" ry="20.8262" style="stroke:#181818;stroke-width:0.5;"/><text fill="#000000" font-family="sans-serif" font-size="14" lengthAdjust="spacing" textLength="143" x="434.1309" y="222.5547">filtrer t&#226;che par &#233;quipe</text></g><g id="elem_Affichage en diagramme de gantt"><ellipse cx="505.4467" cy="135.7893" fill="#F1F1F1" rx="121.9467" ry="26.7893" style="stroke:#181818;stroke-width:0.5;"/><text fill="#000000" font-family="sans-serif" font-size="14" lengthAdjust="spacing" textLength="209" x="400.9467" y="139.5179">Affichage en diagramme de gantt</text></g><g id="elem_Affichage par phase de projet"><ellipse cx="834.304" cy="159.7608" fill="#F1F1F1" rx="111.804" ry="24.7608" style="stroke:#181818;stroke-width:0.5;"/><text fill="#000000" font-family="sans-serif" font-size="14" lengthAdjust="spacing" textLength="187" x="740.804" y="163.4893">Affichage par phase de projet</text></g><g id="elem_les t&#226;ches sont cliquable"><ellipse cx="834.3945" cy="241.8789" fill="#F1F1F1" rx="97.3945" ry="21.8789" style="stroke:#181818;stroke-width:0.5;"/><text fill="#000000" font-family="sans-serif" font-size="14" lengthAdjust="spacing" textLength="155" x="756.8945" y="245.6074">les t&#226;ches sont cliquable</text></g><g id="elem_Affichage Kanban"><ellipse cx="505.5785" cy="362.2157" fill="#F1F1F1" rx="79.0785" ry="18.2157" style="stroke:#181818;stroke-width:0.5;"/><text fill="#000000" font-family="sans-serif" font-size="14" lengthAdjust="spacing" textLength="112" x="448.1751" y="366.3395">Affichage Kanban</text></g><g id="elem_Modifier le status de la t&#226;che"><ellipse cx="834.5675" cy="362.2135" fill="#F1F1F1" rx="109.0675" ry="24.2135" style="stroke:#181818;stroke-width:0.5;"/><text fill="#000000" font-family="sans-serif" font-size="14" lengthAdjust="spacing" textLength="181" x="744.0675" y="365.942">Modifier le status de la t&#226;che</text></g><g id="elem_Affectation de la t&#226;che &#224; un apprenant"><ellipse cx="505.4138" cy="444.8828" fill="#F1F1F1" rx="137.4138" ry="29.8828" style="stroke:#181818;stroke-width:0.5;"/><text fill="#000000" font-family="sans-serif" font-size="14" lengthAdjust="spacing" textLength="242" x="384.4138" y="448.6113">Affectation de la t&#226;che &#224; un apprenant</text></g><g id="elem_Envoyer notification"><ellipse cx="505.5066" cy="529.2013" fill="#F1F1F1" rx="84.0066" ry="19.2013" style="stroke:#181818;stroke-width:0.5;"/><text fill="#000000" font-family="sans-serif" font-size="14" lengthAdjust="spacing" textLength="124" x="443.5066" y="532.9298">Envoyer notification</text></g><!--entity formateur--><g id="elem_formateur"><ellipse cx="39" cy="60.5" fill="#F1F1F1" rx="8" ry="8" style="stroke:#181818;stroke-width:0.5;"/><path d="M39,68.5 L39,95.5 M26,76.5 L52,76.5 M39,95.5 L26,110.5 M39,95.5 L52,110.5 " fill="none" style="stroke:#181818;stroke-width:0.5;"/><text fill="#000000" font-family="sans-serif" font-size="14" lengthAdjust="spacing" textLength="66" x="6" y="126.5332">Formateur</text></g><!--entity apprenant--><g id="elem_apprenant"><ellipse cx="39" cy="232.5" fill="#F1F1F1" rx="8" ry="8" style="stroke:#181818;stroke-width:0.5;"/><path d="M39,240.5 L39,267.5 M26,248.5 L52,248.5 M39,267.5 L26,282.5 M39,267.5 L52,282.5 " fill="none" style="stroke:#181818;stroke-width:0.5;"/><text fill="#000000" font-family="sans-serif" font-size="14" lengthAdjust="spacing" textLength="66" x="6" y="298.5332">Apprenant</text></g><!--reverse link Gestion des projets to Ajouter projet--><g id="link_Gestion des projets_Ajouter projet"><path d="M306.7179,70.5592 C350.2779,67.7892 397.59,64.79 438.75,62.17 " fill="none" id="Gestion des projets-backto-Ajouter projet" style="stroke:#181818;stroke-width:1.0;stroke-dasharray:7.0,7.0;"/><polygon fill="#181818" points="300.73,70.94,309.9657,74.3608,305.7199,70.6227,309.458,66.3769,300.73,70.94" style="stroke:#181818;stroke-width:1.0;"/></g><!--reverse link Ajouter projet to Affectation de projet aux apprenants--><g id="link_Ajouter projet_Affectation de projet aux apprenants"><path d="M579.8553,60.9175 C617.7153,62.4175 660.25,64.11 705.08,65.89 " fill="none" id="Ajouter projet-backto-Affectation de projet aux apprenants" style="stroke:#181818;stroke-width:1.0;stroke-dasharray:7.0,7.0;"/><polygon fill="#181818" points="573.86,60.68,582.6946,65.0332,578.8561,60.8779,583.0113,57.0394,573.86,60.68" style="stroke:#181818;stroke-width:1.0;"/></g><!--reverse link Affectation de projet aux apprenants to filtrer par ?quipe--><g id="link_Affectation de projet aux apprenants_filtrer par &#233;quipe"><path d="M972.31,71 C992.72,71 1007.21,71 1025.81,71 " fill="none" id="Affectation de projet aux apprenants-backto-filtrer par &#233;quipe" style="stroke:#181818;stroke-width:1.0;stroke-dasharray:7.0,7.0;"/><polygon fill="#181818" points="966.31,71,975.31,75,971.31,71,975.31,67,966.31,71" style="stroke:#181818;stroke-width:1.0;"/></g><!--reverse link Gestion des t?ches to Ajouter t?che--><g id="link_Gestion des t&#226;ches_Ajouter t&#226;che"><path d="M229.7508,361.7139 C246.1608,405.8539 290.82,509.77 368,565 C389.15,580.14 416.33,588.56 440.86,593.24 " fill="none" id="Gestion des t&#226;ches-backto-Ajouter t&#226;che" style="stroke:#181818;stroke-width:1.0;stroke-dasharray:7.0,7.0;"/><polygon fill="#181818" points="227.66,356.09,227.0469,365.9198,229.4023,360.7766,234.5455,363.132,227.66,356.09" style="stroke:#181818;stroke-width:1.0;"/></g><!--reverse link Gestion des t?ches to Consulter ses t?ches--><g id="link_Gestion des t&#226;ches_Consulter ses t&#226;ches"><path d="M220,311.92 C220,300.34 220,294.75 220,283.17 " fill="none" id="Gestion des t&#226;ches-backto-Consulter ses t&#226;ches" style="stroke:#181818;stroke-width:1.0;stroke-dasharray:7.0,7.0;"/><polygon fill="#181818" points="220,317.92,224,308.92,220,312.92,216,308.92,220,317.92" style="stroke:#181818;stroke-width:1.0;"/></g><!--reverse link Consulter ses t?ches to filtrer par projet--><g id="link_Consulter ses t&#226;ches_filtrer par projet"><path d="M306.6989,271.7703 C349.9289,276.1903 396.79,280.98 437.82,285.18 " fill="none" id="Consulter ses t&#226;ches-backto-filtrer par projet" style="stroke:#181818;stroke-width:1.0;stroke-dasharray:7.0,7.0;"/><polygon fill="#181818" points="300.73,271.16,309.2765,276.0547,305.7041,271.6686,310.0902,268.0962,300.73,271.16" style="stroke:#181818;stroke-width:1.0;"/></g><!--reverse link Consulter ses t?ches to filtrer t?che par ?quipe--><g id="link_Consulter ses t&#226;ches_filtrer t&#226;che par &#233;quipe"><path d="M299.1991,250.8601 C340.7091,244.4201 386.84,237.26 428.89,230.73 " fill="none" id="Consulter ses t&#226;ches-backto-filtrer t&#226;che par &#233;quipe" style="stroke:#181818;stroke-width:1.0;stroke-dasharray:7.0,7.0;"/><polygon fill="#181818" points="293.27,251.78,302.7768,254.3529,298.2109,251.0135,301.5504,246.4475,293.27,251.78" style="stroke:#181818;stroke-width:1.0;"/></g><!--reverse link Consulter ses t?ches to Affichage en diagramme de gantt--><g id="link_Consulter ses t&#226;ches_Affichage en diagramme de gantt"><path d="M255.2983,240.9805 C284.3283,222.8405 325.45,198.64 368,180 C387.5,171.46 409.2,163.71 429.46,157.19 " fill="none" id="Consulter ses t&#226;ches-backto-Affichage en diagramme de gantt" style="stroke:#181818;stroke-width:1.0;stroke-dasharray:7.0,7.0;"/><polygon fill="#181818" points="250.21,244.16,259.9621,242.7829,254.4502,241.5104,255.7227,235.9985,250.21,244.16" style="stroke:#181818;stroke-width:1.0;"/></g><!--reverse link Affichage en diagramme de gantt to Affichage par phase de projet--><g id="link_Affichage en diagramme de gantt_Affichage par phase de projet"><path d="M627.7739,144.8997 C662.3439,147.4397 694.08,149.77 727.99,152.26 " fill="none" id="Affichage en diagramme de gantt-backto-Affichage par phase de projet" style="stroke:#181818;stroke-width:1.0;stroke-dasharray:7.0,7.0;"/><polygon fill="#181818" points="621.79,144.46,630.4727,149.1087,626.7766,144.8264,631.0589,141.1302,621.79,144.46" style="stroke:#181818;stroke-width:1.0;"/></g><!--reverse link Affichage en diagramme de gantt to les t?ches sont cliquable--><g id="link_Affichage en diagramme de gantt_les t&#226;ches sont cliquable"><path d="M582.1823,159.8056 C603.5923,166.6856 621.46,172.58 643,180 C669.86,189.25 676.08,192.95 703,202 C726.25,209.82 752.03,217.85 774.49,224.65 " fill="none" id="Affichage en diagramme de gantt-backto-les t&#226;ches sont cliquable" style="stroke:#181818;stroke-width:1.0;stroke-dasharray:7.0,7.0;"/><polygon fill="#181818" points="576.47,157.97,583.8147,164.5316,581.2303,159.4997,586.2622,156.9152,576.47,157.97" style="stroke:#181818;stroke-width:1.0;"/></g><!--reverse link Consulter ses t?ches to Affichage Kanban--><g id="link_Consulter ses t&#226;ches_Affichage Kanban"><path d="M268.1414,282.9782 C282.5314,289.0982 293.22,293.65 308,300 C334.71,311.46 340.54,316.49 368,326 C394.17,335.06 423.83,343.14 448.8,349.33 " fill="none" id="Consulter ses t&#226;ches-backto-Affichage Kanban" style="stroke:#181818;stroke-width:1.0;stroke-dasharray:7.0,7.0;"/><polygon fill="#181818" points="262.62,280.63,269.3366,287.8333,267.2212,282.5869,272.4676,280.4714,262.62,280.63" style="stroke:#181818;stroke-width:1.0;"/></g><!--reverse link Affichage Kanban to Modifier le status de la t?che--><g id="link_Affichage Kanban_Modifier le status de la t&#226;che"><path d="M590.82,362 C632.87,362 679.33,362 725.22,362 " fill="none" id="Affichage Kanban-backto-Modifier le status de la t&#226;che" style="stroke:#181818;stroke-width:1.0;stroke-dasharray:7.0,7.0;"/><polygon fill="#181818" points="584.82,362,593.82,366,589.82,362,593.82,358,584.82,362" style="stroke:#181818;stroke-width:1.0;"/></g><!--link Affectation de la t?che ? un apprenant to Ajouter t?che--><g id="link_Affectation de la t&#226;che &#224; un apprenant_Ajouter t&#226;che"><path d="M409.34,466.56 C360.48,482.64 315.67,508.62 338,547.5 C357.4,581.27 393.3127,593.4257 430.3427,597.8657 " fill="none" id="Affectation de la t&#226;che &#224; un apprenant-to-Ajouter t&#226;che" style="stroke:#181818;stroke-width:1.0;stroke-dasharray:7.0,7.0;"/><polygon fill="#181818" points="436.3,598.58,427.8402,593.537,431.3356,597.9847,426.8878,601.4801,436.3,598.58" style="stroke:#181818;stroke-width:1.0;"/></g><!--link Envoyer notification to Affectation de la t?che ? un apprenant--><g id="link_Envoyer notification_Affectation de la t&#226;che &#224; un apprenant"><path d="M505.5,509.97 C505.5,498.38 505.5,492.79 505.5,481.2 " fill="none" id="Envoyer notification-to-Affectation de la t&#226;che &#224; un apprenant" style="stroke:#181818;stroke-width:1.0;stroke-dasharray:7.0,7.0;"/><polygon fill="#181818" points="505.5,475.2,501.5,484.2,505.5,480.2,509.5,484.2,505.5,475.2" style="stroke:#181818;stroke-width:1.0;"/></g><!--link formateur to Gestion des projets--><g id="link_formateur_Gestion des projets"><path d="M72,88.32 C91.41,86.69 111.091,85.0413 135.541,82.9913 " fill="none" id="formateur-to-Gestion des projets" style="stroke:#181818;stroke-width:1.0;"/><polygon fill="#181818" points="141.52,82.49,132.2173,79.2559,136.5375,82.9078,132.8857,87.228,141.52,82.49" style="stroke:#181818;stroke-width:1.0;"/></g><!--link formateur to Gestion des t?ches--><g id="link_formateur_Gestion des t&#226;ches"><path d="M50.69,130.21 C66.56,187.24 95.77,287.68 108,300 C120.09,312.18 130.6135,318.4359 146.8935,323.9159 " fill="none" id="formateur-to-Gestion des t&#226;ches" style="stroke:#181818;stroke-width:1.0;"/><polygon fill="#181818" points="152.58,325.83,145.3264,319.1678,147.8413,324.2349,142.7742,326.7498,152.58,325.83" style="stroke:#181818;stroke-width:1.0;"/></g><!--link apprenant to Consulter ses t?ches--><g id="link_apprenant_Consulter ses t&#226;ches"><path d="M72,263 C88.9,263 104.53,263 125.97,263 " fill="none" id="apprenant-to-Consulter ses t&#226;ches" style="stroke:#181818;stroke-width:1.0;"/><polygon fill="#181818" points="131.97,263,122.97,259,126.97,263,122.97,267,131.97,263" style="stroke:#181818;stroke-width:1.0;"/></g><!--SRC=[bLHBJiCm4Dtx5ADkQ1QDn1QXIXK25eWpe6aoITmwTkeF0Y7kWjXnZbuCEt4JbBQqpSxpthnvCnv7K671Aj2yh2paN5DckPACCSoiql2WT8sMd0OqKEmE4LmqZIQ9qWOGTmUVss2snfAWMPSlZLOhiWO-60EOFf89-f2JWOWaS9kcC5sibBEaOpI1m1x7Ec9HU9COPI86wDu62oQcdyLiHGikh0wLKCFsP-DuGydOhzr-PnMD_NRHhk11jgV3z4v9uqJWcpzOo3cCxBkACpWtfOlkzVDVgXyNpwfmR-HRu5Xgh6iAaolzfBhIfpXZfTPvXOQ62xX0HmmUmIY_PvdW6uTBSKapJoYNA4TLOx3ZFgkS5zpB20BZzyMPO4JWxcxPWMNgKTX-WPF3HYMGplUs8mZSorVrxaDIMLyjQvNyThJiSxMzJly8OJQR7tjH9tZzg3ol5szvnnRLVvy0Z5q5-nH_5we0p6ikuGOcRVXwmdu1]--></g></svg>