<?xml version="1.0" encoding="us-ascii" standalone="no"?><svg xmlns="http://www.w3.org/2000/svg" xmlns:xlink="http://www.w3.org/1999/xlink" contentStyleType="text/css" height="434px" preserveAspectRatio="none" style="width:857px;height:434px;background:#FFFFFF;" version="1.1" viewBox="0 0 857 434" width="857px" zoomAndPan="magnify"><defs/><g><!--cluster pkg_projets.gestion-t?ches--><g id="cluster_pkg_projets.gestion-t&#226;ches"><path d="M118.5,6 L312.5,6 A3.75,3.75 0 0 1 315,8.5 L322,29.6094 L847.5,29.6094 A2.5,2.5 0 0 1 850,32.1094 L850,332.5 A2.5,2.5 0 0 1 847.5,335 L118.5,335 A2.5,2.5 0 0 1 116,332.5 L116,8.5 A2.5,2.5 0 0 1 118.5,6 " fill="none" style="stroke:#000000;stroke-width:1.5;"/><line style="stroke:#000000;stroke-width:1.5;" x1="116" x2="322" y1="29.6094" y2="29.6094"/><text fill="#000000" font-family="sans-serif" font-size="14" font-weight="bold" lengthAdjust="spacing" textLength="193" x="120" y="22.5332">pkg_projets.gestion-t&#226;ches</text></g><g id="elem_Modifier Statut "><ellipse cx="696.6476" cy="226.9295" fill="#F1F1F1" rx="72.6476" ry="16.9295" style="stroke:#181818;stroke-width:0.5;"/><text fill="#000000" font-family="sans-serif" font-size="14" lengthAdjust="spacing" textLength="91" x="646.1476" y="231.4461">Modifier Statut</text></g><g id="elem_Modifier Date de fin "><ellipse cx="696.2698" cy="298.954" fill="#F1F1F1" rx="85.2698" ry="19.454" style="stroke:#181818;stroke-width:0.5;"/><text fill="#000000" font-family="sans-serif" font-size="14" lengthAdjust="spacing" textLength="123" x="632.7698" y="302.6825">Modifier Date de fin</text></g><g id="elem_Gestion des t&#226;ches"><ellipse cx="215.169" cy="190.0338" fill="#F1F1F1" rx="83.169" ry="19.0338" style="stroke:#181818;stroke-width:0.5;"/><text fill="#000000" font-family="sans-serif" font-size="14" lengthAdjust="spacing" textLength="122" x="154.169" y="193.7623">Gestion des t&#226;ches</text></g><g id="elem_Ajouter t&#226;che"><ellipse cx="428.2688" cy="152.1538" fill="#F1F1F1" rx="68.7688" ry="16.1538" style="stroke:#181818;stroke-width:0.5;"/><text fill="#000000" font-family="sans-serif" font-size="14" lengthAdjust="spacing" textLength="84" x="383.2688" y="156.6704">Ajouter t&#226;che</text></g><g id="elem_Affectation de la t&#226;che &#224; un apprenant"><ellipse cx="696.4138" cy="144.8828" fill="#F1F1F1" rx="137.4138" ry="29.8828" style="stroke:#181818;stroke-width:0.5;"/><text fill="#000000" font-family="sans-serif" font-size="14" lengthAdjust="spacing" textLength="242" x="575.4138" y="148.6113">Affectation de la t&#226;che &#224; un apprenant</text></g><g id="elem_Envoyer notification"><ellipse cx="696.5066" cy="61.2013" fill="#F1F1F1" rx="84.0066" ry="19.2013" style="stroke:#181818;stroke-width:0.5;"/><text fill="#000000" font-family="sans-serif" font-size="14" lengthAdjust="spacing" textLength="124" x="634.5066" y="64.9298">Envoyer notification</text></g><g id="elem_Modifier t&#226;che"><ellipse cx="428.5039" cy="227.0008" fill="#F1F1F1" rx="70.5039" ry="16.5008" style="stroke:#181818;stroke-width:0.5;"/><text fill="#000000" font-family="sans-serif" font-size="14" lengthAdjust="spacing" textLength="89" x="381.0039" y="231.5174">Modifier t&#226;che</text></g><!--entity formateur--><g id="elem_formateur"><ellipse cx="39" cy="159.5" fill="#F1F1F1" rx="8" ry="8" style="stroke:#181818;stroke-width:0.5;"/><path d="M39,167.5 L39,194.5 M26,175.5 L52,175.5 M39,194.5 L26,209.5 M39,194.5 L52,209.5 " fill="none" style="stroke:#181818;stroke-width:0.5;"/><text fill="#000000" font-family="sans-serif" font-size="14" lengthAdjust="spacing" textLength="66" x="6" y="225.5332">Formateur</text></g><!--entity apprenant--><g id="elem_apprenant"><ellipse cx="428.5" cy="359.5" fill="#F1F1F1" rx="8" ry="8" style="stroke:#181818;stroke-width:0.5;"/><path d="M428.5,367.5 L428.5,394.5 M415.5,375.5 L441.5,375.5 M428.5,394.5 L415.5,409.5 M428.5,394.5 L441.5,409.5 " fill="none" style="stroke:#181818;stroke-width:0.5;"/><text fill="#000000" font-family="sans-serif" font-size="14" lengthAdjust="spacing" textLength="66" x="395.5" y="425.5332">Apprenant</text></g><!--link apprenant to Modifier Statut --><g id="link_apprenant_Modifier Statut "><path d="M461.83,366.71 C473.97,357.39 487.58,346.21 499,335 C528.97,305.58 523.57,284.55 559,262 C580.67,248.2 607.53,239.84 631.67,234.77 " fill="none" id="apprenant-Modifier Statut " style="stroke:#181818;stroke-width:1.0;"/></g><!--link apprenant to Modifier Date de fin --><g id="link_apprenant_Modifier Date de fin "><path d="M461.59,379.02 C508.01,363.14 594.24,333.64 648.04,315.24 " fill="none" id="apprenant-Modifier Date de fin " style="stroke:#181818;stroke-width:1.0;"/></g><!--link formateur to Gestion des t?ches--><g id="link_formateur_Gestion des t&#226;ches"><path d="M72.32,190 C89.22,190 110.76,190 131.91,190 " fill="none" id="formateur-Gestion des t&#226;ches" style="stroke:#181818;stroke-width:1.0;"/></g><!--reverse link Gestion des t?ches to Ajouter t?che--><g id="link_Gestion des t&#226;ches_Ajouter t&#226;che"><path d="M286.7956,177.2797 C316.4256,171.9597 345.21,166.79 373.4,161.72 " fill="none" id="Gestion des t&#226;ches-backto-Ajouter t&#226;che" style="stroke:#181818;stroke-width:1.0;stroke-dasharray:7.0,7.0;"/><polygon fill="#181818" points="280.89,178.34,290.4552,180.6865,285.8113,177.4564,289.0415,172.8125,280.89,178.34" style="stroke:#181818;stroke-width:1.0;"/></g><!--reverse link Ajouter t?che to Affectation de la t?che ? un apprenant--><g id="link_Ajouter t&#226;che_Affectation de la t&#226;che &#224; un apprenant"><path d="M503.3079,150.061 C522.5479,149.551 538.21,149.14 559.96,148.57 " fill="none" id="Ajouter t&#226;che-backto-Affectation de la t&#226;che &#224; un apprenant" style="stroke:#181818;stroke-width:1.0;stroke-dasharray:7.0,7.0;"/><polygon fill="#181818" points="497.31,150.22,506.4128,153.9801,502.3082,150.0875,506.2008,145.9829,497.31,150.22" style="stroke:#181818;stroke-width:1.0;"/></g><!--reverse link Affectation de la t?che ? un apprenant to Envoyer notification--><g id="link_Affectation de la t&#226;che &#224; un apprenant_Envoyer notification"><path d="M696.5,108.81 C696.5,97.32 696.5,91.83 696.5,80.34 " fill="none" id="Affectation de la t&#226;che &#224; un apprenant-backto-Envoyer notification" style="stroke:#181818;stroke-width:1.0;stroke-dasharray:7.0,7.0;"/><polygon fill="#181818" points="696.5,114.81,700.5,105.81,696.5,109.81,692.5,105.81,696.5,114.81" style="stroke:#181818;stroke-width:1.0;"/></g><!--reverse link Gestion des t?ches to Modifier t?che--><g id="link_Gestion des t&#226;ches_Modifier t&#226;che"><path d="M287.3803,202.4835 C316.2603,207.5335 343.93,212.38 371.61,217.22 " fill="none" id="Gestion des t&#226;ches-backto-Modifier t&#226;che" style="stroke:#181818;stroke-width:1.0;stroke-dasharray:7.0,7.0;"/><polygon fill="#181818" points="281.47,201.45,289.6465,206.9404,286.3953,202.3112,291.0245,199.06,281.47,201.45" style="stroke:#181818;stroke-width:1.0;"/></g><!--reverse link Modifier t?che to Modifier Statut --><g id="link_Modifier t&#226;che_Modifier Statut "><path d="M505.04,227 C543.37,227 584.88,227 623.58,227 " fill="none" id="Modifier t&#226;che-backto-Modifier Statut " style="stroke:#181818;stroke-width:1.0;stroke-dasharray:7.0,7.0;"/><polygon fill="#181818" points="499.04,227,508.04,231,504.04,227,508.04,223,499.04,227" style="stroke:#181818;stroke-width:1.0;"/></g><!--reverse link Modifier t?che to Modifier Date de fin --><g id="link_Modifier t&#226;che_Modifier Date de fin "><path d="M481.0217,240.9472 C526.9217,253.3672 591.85,270.95 640.72,284.17 " fill="none" id="Modifier t&#226;che-backto-Modifier Date de fin " style="stroke:#181818;stroke-width:1.0;stroke-dasharray:7.0,7.0;"/><polygon fill="#181818" points="475.23,239.38,482.8728,245.5919,480.0564,240.686,484.9624,237.8696,475.23,239.38" style="stroke:#181818;stroke-width:1.0;"/></g><!--SRC=[ZP9DJiCm48NtFiLJDeH58h55tLG2kcB50QfHCaxT7pjo9fKGuYw8g_HYJ7wQ20egcqX-y-NDyvFtR0KI45sr4PGkSY4kU6CC5H8Yda8ya70RGGti-J0EbtKTsPENRaZdWp4r5Jkg64czgzPr35kM9g-uwPmpENqM6suIlEcEoI3Ba3w7qbd74Iz2qWfkyHVme2bGCgpp7JNbwYYags6J0Wt6RGgPt_L5dYDTRaChwZke2bye0sQjraEZ2VOqZd7wGEld1dg3VxCBTNxqn_2gwtmGlM7H_tObyrJ67Ff2-WxEjLuZV_Hhtg6VcouTZoybM51vqF4zabw-IymN]--></g></svg>