<?xml version="1.0" encoding="us-ascii" standalone="no"?><svg xmlns="http://www.w3.org/2000/svg" xmlns:xlink="http://www.w3.org/1999/xlink" contentStyleType="text/css" height="424px" preserveAspectRatio="none" style="width:645px;height:424px;background:#FFFFFF;" version="1.1" viewBox="0 0 645 424" width="645px" zoomAndPan="magnify"><defs/><g><!--cluster pkg_projets.gestion-projets--><g id="cluster_pkg_projets.gestion-projets"><path d="M118.5,6 L315.5,6 A3.75,3.75 0 0 1 318,8.5 L325,29.6094 L635.5,29.6094 A2.5,2.5 0 0 1 638,32.1094 L638,319.5 A2.5,2.5 0 0 1 635.5,322 L118.5,322 A2.5,2.5 0 0 1 116,319.5 L116,8.5 A2.5,2.5 0 0 1 118.5,6 " fill="none" style="stroke:#000000;stroke-width:1.5;"/><line style="stroke:#000000;stroke-width:1.5;" x1="116" x2="325" y1="29.6094" y2="29.6094"/><text fill="#000000" font-family="sans-serif" font-size="14" font-weight="bold" lengthAdjust="spacing" textLength="196" x="120" y="22.5332">pkg_projets.gestion-projets</text></g><g id="elem_Gestion des projets"><ellipse cx="215.5873" cy="216.1175" fill="#F1F1F1" rx="83.5873" ry="19.1175" style="stroke:#181818;stroke-width:0.5;"/><text fill="#000000" font-family="sans-serif" font-size="14" lengthAdjust="spacing" textLength="123" x="154.0873" y="219.846">Gestion des projets</text></g><g id="elem_Ajouter projet"><ellipse cx="490.6119" cy="221.2224" fill="#F1F1F1" rx="69.1119" ry="16.2224" style="stroke:#181818;stroke-width:0.5;"/><text fill="#000000" font-family="sans-serif" font-size="14" lengthAdjust="spacing" textLength="85" x="445.1119" y="225.739">Ajouter projet</text></g><g id="elem_Affectation de projet aux apprenants"><ellipse cx="490.29" cy="141.158" fill="#F1F1F1" rx="131.29" ry="28.658" style="stroke:#181818;stroke-width:0.5;"/><text fill="#000000" font-family="sans-serif" font-size="14" lengthAdjust="spacing" textLength="229" x="375.79" y="144.8865">Affectation de projet aux apprenants</text></g><g id="elem_filtrer par &#233;quipe"><ellipse cx="490.4763" cy="60.0953" fill="#F1F1F1" rx="75.9763" ry="17.5953" style="stroke:#181818;stroke-width:0.5;"/><text fill="#000000" font-family="sans-serif" font-size="14" lengthAdjust="spacing" textLength="104" x="435.5467" y="64.5957">filtrer par &#233;quipe</text></g><g id="elem_Consulter projet"><ellipse cx="215.3525" cy="287.8705" fill="#F1F1F1" rx="74.8525" ry="17.3705" style="stroke:#181818;stroke-width:0.5;"/><text fill="#000000" font-family="sans-serif" font-size="14" lengthAdjust="spacing" textLength="101" x="161.8525" y="292.3871">Consulter projet</text></g><g id="elem_Gestion livrable"><ellipse cx="490.7427" cy="289.1485" fill="#F1F1F1" rx="73.7427" ry="17.1485" style="stroke:#181818;stroke-width:0.5;"/><text fill="#000000" font-family="sans-serif" font-size="14" lengthAdjust="spacing" textLength="98" x="438.7427" y="293.6651">Gestion livrable</text></g><!--entity formateur--><g id="elem_formateur"><ellipse cx="39" cy="185.5" fill="#F1F1F1" rx="8" ry="8" style="stroke:#181818;stroke-width:0.5;"/><path d="M39,193.5 L39,220.5 M26,201.5 L52,201.5 M39,220.5 L26,235.5 M39,220.5 L52,235.5 " fill="none" style="stroke:#181818;stroke-width:0.5;"/><text fill="#000000" font-family="sans-serif" font-size="14" lengthAdjust="spacing" textLength="66" x="6" y="251.5332">Formateur</text></g><!--entity apprenant--><g id="elem_apprenant"><ellipse cx="215.5" cy="349.5" fill="#F1F1F1" rx="8" ry="8" style="stroke:#181818;stroke-width:0.5;"/><path d="M215.5,357.5 L215.5,384.5 M202.5,365.5 L228.5,365.5 M215.5,384.5 L202.5,399.5 M215.5,384.5 L228.5,399.5 " fill="none" style="stroke:#181818;stroke-width:0.5;"/><text fill="#000000" font-family="sans-serif" font-size="14" lengthAdjust="spacing" textLength="66" x="182.5" y="415.5332">Apprenant</text></g><!--link formateur to Gestion des projets--><g id="link_formateur_Gestion des projets"><path d="M72.01,216 C88.93,216 110.56,216 131.83,216 " fill="none" id="formateur-Gestion des projets" style="stroke:#181818;stroke-width:1.0;"/></g><!--reverse link Gestion des projets to Ajouter projet--><g id="link_Gestion des projets_Ajouter projet"><path d="M304.779,217.62 C344.029,218.34 384.42,219.08 421.62,219.76 " fill="none" id="Gestion des projets-backto-Ajouter projet" style="stroke:#181818;stroke-width:1.0;stroke-dasharray:7.0,7.0;"/><polygon fill="#181818" points="298.78,217.51,307.7051,221.6744,303.7792,217.6017,307.8518,213.6757,298.78,217.51" style="stroke:#181818;stroke-width:1.0;"/></g><!--reverse link Ajouter projet to Affectation de projet aux apprenants--><g id="link_Ajouter projet_Affectation de projet aux apprenants"><path d="M490.5,198.75 C490.5,187.13 490.5,181.51 490.5,169.89 " fill="none" id="Ajouter projet-backto-Affectation de projet aux apprenants" style="stroke:#181818;stroke-width:1.0;stroke-dasharray:7.0,7.0;"/><polygon fill="#181818" points="490.5,204.75,494.5,195.75,490.5,199.75,486.5,195.75,490.5,204.75" style="stroke:#181818;stroke-width:1.0;"/></g><!--reverse link Affectation de projet aux apprenants to filtrer par ?quipe--><g id="link_Affectation de projet aux apprenants_filtrer par &#233;quipe"><path d="M490.5,106.21 C490.5,94.65 490.5,89.09 490.5,77.54 " fill="none" id="Affectation de projet aux apprenants-backto-filtrer par &#233;quipe" style="stroke:#181818;stroke-width:1.0;stroke-dasharray:7.0,7.0;"/><polygon fill="#181818" points="490.5,112.21,494.5,103.21,490.5,107.21,486.5,103.21,490.5,112.21" style="stroke:#181818;stroke-width:1.0;"/></g><!--reverse link Gestion des projets to Consulter projet--><g id="link_Gestion des projets_Consulter projet"><path d="M215.5,241.08 C215.5,252.82 215.5,258.55 215.5,270.28 " fill="none" id="Gestion des projets-backto-Consulter projet" style="stroke:#181818;stroke-width:1.0;stroke-dasharray:7.0,7.0;"/><polygon fill="#181818" points="215.5,235.08,211.5,244.08,215.5,240.08,219.5,244.08,215.5,235.08" style="stroke:#181818;stroke-width:1.0;"/></g><!--reverse link Consulter projet to Gestion livrable--><g id="link_Consulter projet_Gestion livrable"><path d="M296.74,288.293 C335.9,288.443 377.75,288.59 416.69,288.73 " fill="none" id="Consulter projet-backto-Gestion livrable" style="stroke:#181818;stroke-width:1.0;stroke-dasharray:7.0,7.0;"/><polygon fill="#181818" points="290.74,288.27,299.7246,292.3044,295.74,288.2892,299.7553,284.3045,290.74,288.27" style="stroke:#181818;stroke-width:1.0;"/></g><!--link apprenant to Gestion livrable--><g id="link_apprenant_Gestion livrable"><path d="M248.62,369.29 C298.09,352.8 392.94,321.19 447.7,302.93 " fill="none" id="apprenant-Gestion livrable" style="stroke:#181818;stroke-width:1.0;"/></g><!--SRC=[ZP51JiCm44NtSuglR4WNYSGMTLCXmJ7Ga8o3szHsnmv2GXo8St0nQk8eKYiGo_d_wSyVUnIJa3pK3Yy9lLNfalMEYBXBNl7WzSX99WL7c6KevYu45SSkPPENWIXmT-11K8N3y1JKxoN5Tf2OavioLtWdmXg9fW7gnnb2Bn45t81-CxPjYtgtzrCIBUfCNshRp1bplerBIh70qzlQlEpw7vapZHsJvZsi-FeyJJR8XlweY_hUkpYDbtslrVcs9MQqhyhFupaSM4la9xj6G1y0qGsSJrB-rHjmVxGETwX-vDkAlW40]--></g></svg>