<?xml version="1.0" encoding="us-ascii" standalone="no"?><svg xmlns="http://www.w3.org/2000/svg" xmlns:xlink="http://www.w3.org/1999/xlink" contentStyleType="text/css" height="342px" preserveAspectRatio="none" style="width:635px;height:342px;background:#FFFFFF;" version="1.1" viewBox="0 0 635 342" width="635px" zoomAndPan="magnify"><defs/><g><!--cluster pkg_projets--><g id="cluster_pkg_projets"><path d="M118.5,6 L203.5,6 A3.75,3.75 0 0 1 206,8.5 L213,29.6094 L625.5,29.6094 A2.5,2.5 0 0 1 628,32.1094 L628,310.5 A2.5,2.5 0 0 1 625.5,313 L118.5,313 A2.5,2.5 0 0 1 116,310.5 L116,8.5 A2.5,2.5 0 0 1 118.5,6 " fill="none" style="stroke:#000000;stroke-width:1.5;"/><line style="stroke:#000000;stroke-width:1.5;" x1="116" x2="213" y1="29.6094" y2="29.6094"/><text fill="#000000" font-family="sans-serif" font-size="14" font-weight="bold" lengthAdjust="spacing" textLength="84" x="120" y="22.5332">pkg_projets</text></g><g id="elem_Gestion des projets"><ellipse cx="220.0873" cy="278.1175" fill="#F1F1F1" rx="83.5873" ry="19.1175" style="stroke:#181818;stroke-width:0.5;"/><text fill="#000000" font-family="sans-serif" font-size="14" lengthAdjust="spacing" textLength="123" x="158.5873" y="281.846">Gestion des projets</text></g><g id="elem_Gestion des t&#226;ches"><ellipse cx="220.169" cy="205.0338" fill="#F1F1F1" rx="83.169" ry="19.0338" style="stroke:#181818;stroke-width:0.5;"/><text fill="#000000" font-family="sans-serif" font-size="14" lengthAdjust="spacing" textLength="122" x="159.169" y="208.7623">Gestion des t&#226;ches</text></g><g id="elem_Modifier t&#226;che"><ellipse cx="220.0039" cy="134.0008" fill="#F1F1F1" rx="70.5039" ry="16.5008" style="stroke:#181818;stroke-width:0.5;"/><text fill="#000000" font-family="sans-serif" font-size="14" lengthAdjust="spacing" textLength="89" x="172.5039" y="138.5174">Modifier t&#226;che</text></g><g id="elem_valider la t&#226;che"><ellipse cx="490.0109" cy="249.0022" fill="#F1F1F1" rx="73.0109" ry="17.0022" style="stroke:#181818;stroke-width:0.5;"/><text fill="#000000" font-family="sans-serif" font-size="14" lengthAdjust="spacing" textLength="96" x="439.0109" y="253.5188">valider la t&#226;che</text></g><g id="elem_Consulter ses t&#226;ches"><ellipse cx="219.8193" cy="61.9639" fill="#F1F1F1" rx="87.8193" ry="19.9639" style="stroke:#181818;stroke-width:0.5;"/><text fill="#000000" font-family="sans-serif" font-size="14" lengthAdjust="spacing" textLength="133" x="153.3193" y="65.6924">Consulter ses t&#226;ches</text></g><g id="elem_Affichage en diagramme de gantt"><ellipse cx="489.9467" cy="68.7893" fill="#F1F1F1" rx="121.9467" ry="26.7893" style="stroke:#181818;stroke-width:0.5;"/><text fill="#000000" font-family="sans-serif" font-size="14" lengthAdjust="spacing" textLength="209" x="385.4467" y="72.5179">Affichage en diagramme de gantt</text></g><g id="elem_Affichage Kanban"><ellipse cx="490.0785" cy="149.2157" fill="#F1F1F1" rx="79.0785" ry="18.2157" style="stroke:#181818;stroke-width:0.5;"/><text fill="#000000" font-family="sans-serif" font-size="14" lengthAdjust="spacing" textLength="112" x="432.6751" y="153.3395">Affichage Kanban</text></g><!--entity formateur--><g id="elem_formateur"><ellipse cx="39" cy="247.5" fill="#F1F1F1" rx="8" ry="8" style="stroke:#181818;stroke-width:0.5;"/><path d="M39,255.5 L39,282.5 M26,263.5 L52,263.5 M39,282.5 L26,297.5 M39,282.5 L52,297.5 " fill="none" style="stroke:#181818;stroke-width:0.5;"/><text fill="#000000" font-family="sans-serif" font-size="14" lengthAdjust="spacing" textLength="66" x="6" y="313.5332">Formateur</text></g><!--entity apprenant--><g id="elem_apprenant"><ellipse cx="39" cy="31.5" fill="#F1F1F1" rx="8" ry="8" style="stroke:#181818;stroke-width:0.5;"/><path d="M39,39.5 L39,66.5 M26,47.5 L52,47.5 M39,66.5 L26,81.5 M39,66.5 L52,81.5 " fill="none" style="stroke:#181818;stroke-width:0.5;"/><text fill="#000000" font-family="sans-serif" font-size="14" lengthAdjust="spacing" textLength="66" x="6" y="97.5332">Apprenant</text></g><!--link formateur to Gestion des projets--><g id="link_formateur_Gestion des projets"><path d="M72,278 C90,278 113.38,278 136.18,278 " fill="none" id="formateur-Gestion des projets" style="stroke:#181818;stroke-width:1.0;"/></g><!--link formateur to Gestion des t?ches--><g id="link_formateur_Gestion des t&#226;ches"><path d="M72.25,258.87 C83.36,252.71 96.02,246.15 108,241 C126.8,232.92 148.04,225.61 166.87,219.72 " fill="none" id="formateur-Gestion des t&#226;ches" style="stroke:#181818;stroke-width:1.0;"/></g><!--reverse link Gestion des t?ches to Modifier t?che--><g id="link_Gestion des t&#226;ches_Modifier t&#226;che"><path d="M220,179.86 C220,168.11 220,162.36 220,150.61 " fill="none" id="Gestion des t&#226;ches-backto-Modifier t&#226;che" style="stroke:#181818;stroke-width:1.0;stroke-dasharray:7.0,7.0;"/><polygon fill="#181818" points="220,185.86,224,176.86,220,180.86,216,176.86,220,185.86" style="stroke:#181818;stroke-width:1.0;"/></g><!--reverse link Modifier t?che to valider la t?che--><g id="link_Modifier t&#226;che_valider la t&#226;che"><path d="M263.5871,150.1616 C279.0971,156.1516 291.7,161.17 308,168 C360.39,189.95 420.44,217.25 456.51,233.89 " fill="none" id="Modifier t&#226;che-backto-valider la t&#226;che" style="stroke:#181818;stroke-width:1.0;stroke-dasharray:7.0,7.0;"/><polygon fill="#181818" points="257.99,148,264.9446,154.9738,262.6542,149.8013,267.8267,147.511,257.99,148" style="stroke:#181818;stroke-width:1.0;"/></g><!--link apprenant to Consulter ses t?ches--><g id="link_apprenant_Consulter ses t&#226;ches"><path d="M72,62 C88.9,62 110.53,62 131.97,62 " fill="none" id="apprenant-Consulter ses t&#226;ches" style="stroke:#181818;stroke-width:1.0;"/></g><!--link formateur to valider la t?che--><g id="link_formateur_valider la t&#226;che"><path d="M72.24,299.18 C83.14,305.19 95.68,310.94 108,314 C194.27,335.43 220.43,329.25 308,314 C362.27,304.55 421.78,280.28 457.22,264.22 " fill="none" id="formateur-valider la t&#226;che" style="stroke:#181818;stroke-width:1.0;"/></g><!--reverse link Gestion des t?ches to Consulter ses t?ches--><g id="link_Gestion des t&#226;ches_Consulter ses t&#226;ches"><path d="M142.7266,193.5312 C118.1566,185.9512 100.05,174.28 90,150.5 C80.73,128.55 87.68,112.44 108,100 C124.02,90.19 142.9,82.54 160.55,76.76 " fill="none" id="Gestion des t&#226;ches-backto-Consulter ses t&#226;ches" style="stroke:#181818;stroke-width:1.0;stroke-dasharray:7.0,7.0;"/><polygon fill="#181818" points="148.46,195.3,141.0391,188.8246,143.6822,193.826,138.6808,196.4691,148.46,195.3" style="stroke:#181818;stroke-width:1.0;"/></g><!--reverse link Consulter ses t?ches to Affichage en diagramme de gantt--><g id="link_Consulter ses t&#226;ches_Affichage en diagramme de gantt"><path d="M313.6379,64.4175 C333.0579,64.9275 348.01,65.32 368.53,65.85 " fill="none" id="Consulter ses t&#226;ches-backto-Affichage en diagramme de gantt" style="stroke:#181818;stroke-width:1.0;stroke-dasharray:7.0,7.0;"/><polygon fill="#181818" points="307.64,64.26,316.5319,68.4949,312.6383,64.3913,316.7419,60.4977,307.64,64.26" style="stroke:#181818;stroke-width:1.0;"/></g><!--reverse link Consulter ses t?ches to Affichage Kanban--><g id="link_Consulter ses t&#226;ches_Affichage Kanban"><path d="M273.4749,80.8454 C302.2649,91.0554 334.32,102.15 368,113 C391.57,120.59 417.91,128.5 439.98,134.96 " fill="none" id="Consulter ses t&#226;ches-backto-Affichage Kanban" style="stroke:#181818;stroke-width:1.0;stroke-dasharray:7.0,7.0;"/><polygon fill="#181818" points="267.82,78.84,274.9654,85.6181,272.5324,80.5112,277.6394,78.0782,267.82,78.84" style="stroke:#181818;stroke-width:1.0;"/></g><!--SRC=[bPB1JWCX54NtVCLDDyuiQkBMk6bCTD7u3UO93mOx0mHUtHX_nb_nnuGwhQbnJ5not-5o88ni1HAHlHi4ncVMucDGIf6Mc74NyqJ2-mmgiCV5FDoab3bGa3QauwBkJQHtv1XfvnvJZiyi1QzAuRi1wpNGtNDffy5mmSpr-1kJZtSzSEdLGWxSNA9xYCPRptcE3_JFh94LVQ7HcvgET88hVRfDC-XkOoZxKIfLpXNEH7-hWbeKRPwBnGkJB-MDjLuFxO6vTdfocQQ9QpjSDPP_xDzIUABGgpTKqGk4A3n_XMX1Pl81rrWTugkL-WG0]--></g></svg>