<?xml version="1.0" encoding="us-ascii" standalone="no"?><svg xmlns="http://www.w3.org/2000/svg" xmlns:xlink="http://www.w3.org/1999/xlink" contentStyleType="text/css" height="336px" preserveAspectRatio="none" style="width:919px;height:336px;background:#FFFFFF;" version="1.1" viewBox="0 0 919 336" width="919px" zoomAndPan="magnify"><defs/><g><!--cluster pkg_projets.gestion-t?ches.consultation--><g id="cluster_pkg_projets.gestion-t&#226;ches.consultation"><path d="M118.5,6 L403.5,6 A3.75,3.75 0 0 1 406,8.5 L413,29.6094 L909.5,29.6094 A2.5,2.5 0 0 1 912,32.1094 L912,326.5 A2.5,2.5 0 0 1 909.5,329 L118.5,329 A2.5,2.5 0 0 1 116,326.5 L116,8.5 A2.5,2.5 0 0 1 118.5,6 " fill="none" style="stroke:#000000;stroke-width:1.5;"/><line style="stroke:#000000;stroke-width:1.5;" x1="116" x2="413" y1="29.6094" y2="29.6094"/><text fill="#000000" font-family="sans-serif" font-size="14" font-weight="bold" lengthAdjust="spacing" textLength="284" x="120" y="22.5332">pkg_projets.gestion-t&#226;ches.consultation</text></g><g id="elem_Gestion des t&#226;ches"><ellipse cx="220.169" cy="96.0338" fill="#F1F1F1" rx="83.169" ry="19.0338" style="stroke:#181818;stroke-width:0.5;"/><text fill="#000000" font-family="sans-serif" font-size="14" lengthAdjust="spacing" textLength="122" x="159.169" y="99.7623">Gestion des t&#226;ches</text></g><g id="elem_Consulter ses t&#226;ches"><ellipse cx="219.8193" cy="188.9639" fill="#F1F1F1" rx="87.8193" ry="19.9639" style="stroke:#181818;stroke-width:0.5;"/><text fill="#000000" font-family="sans-serif" font-size="14" lengthAdjust="spacing" textLength="133" x="153.3193" y="192.6924">Consulter ses t&#226;ches</text></g><g id="elem_filtrer par projet"><ellipse cx="489.876" cy="296.0752" fill="#F1F1F1" rx="73.376" ry="17.0752" style="stroke:#181818;stroke-width:0.5;"/><text fill="#000000" font-family="sans-serif" font-size="14" lengthAdjust="spacing" textLength="97" x="438.376" y="300.5918">filtrer par projet</text></g><g id="elem_filtrer t&#226;che par &#233;quipe"><ellipse cx="490.1309" cy="222.8262" fill="#F1F1F1" rx="92.1309" ry="20.8262" style="stroke:#181818;stroke-width:0.5;"/><text fill="#000000" font-family="sans-serif" font-size="14" lengthAdjust="spacing" textLength="143" x="418.6309" y="226.5547">filtrer t&#226;che par &#233;quipe</text></g><g id="elem_Affichage en diagramme de gantt"><ellipse cx="489.9467" cy="139.7893" fill="#F1F1F1" rx="121.9467" ry="26.7893" style="stroke:#181818;stroke-width:0.5;"/><text fill="#000000" font-family="sans-serif" font-size="14" lengthAdjust="spacing" textLength="209" x="385.4467" y="143.5179">Affichage en diagramme de gantt</text></g><g id="elem_Affichage Kanban"><ellipse cx="490.0785" cy="60.2157" fill="#F1F1F1" rx="79.0785" ry="18.2157" style="stroke:#181818;stroke-width:0.5;"/><text fill="#000000" font-family="sans-serif" font-size="14" lengthAdjust="spacing" textLength="112" x="432.6751" y="64.3395">Affichage Kanban</text></g><g id="elem_Affichage par phase de projet"><ellipse cx="783.804" cy="149.7608" fill="#F1F1F1" rx="111.804" ry="24.7608" style="stroke:#181818;stroke-width:0.5;"/><text fill="#000000" font-family="sans-serif" font-size="14" lengthAdjust="spacing" textLength="187" x="690.304" y="153.4893">Affichage par phase de projet</text></g><g id="elem_les t&#226;ches sont cliquable"><ellipse cx="783.8945" cy="231.8789" fill="#F1F1F1" rx="97.3945" ry="21.8789" style="stroke:#181818;stroke-width:0.5;"/><text fill="#000000" font-family="sans-serif" font-size="14" lengthAdjust="spacing" textLength="155" x="706.3945" y="235.6074">les t&#226;ches sont cliquable</text></g><g id="elem_Modifier le status de la t&#226;che"><ellipse cx="784.0675" cy="66.2135" fill="#F1F1F1" rx="109.0675" ry="24.2135" style="stroke:#181818;stroke-width:0.5;"/><text fill="#000000" font-family="sans-serif" font-size="14" lengthAdjust="spacing" textLength="181" x="693.5675" y="69.942">Modifier le status de la t&#226;che</text></g><!--entity formateur--><g id="elem_formateur"><ellipse cx="39" cy="55.5" fill="#F1F1F1" rx="8" ry="8" style="stroke:#181818;stroke-width:0.5;"/><path d="M39,63.5 L39,90.5 M26,71.5 L52,71.5 M39,90.5 L26,105.5 M39,90.5 L52,105.5 " fill="none" style="stroke:#181818;stroke-width:0.5;"/><text fill="#000000" font-family="sans-serif" font-size="14" lengthAdjust="spacing" textLength="66" x="6" y="121.5332">Formateur</text></g><!--entity apprenant--><g id="elem_apprenant"><ellipse cx="39" cy="168.5" fill="#F1F1F1" rx="8" ry="8" style="stroke:#181818;stroke-width:0.5;"/><path d="M39,176.5 L39,203.5 M26,184.5 L52,184.5 M39,203.5 L26,218.5 M39,203.5 L52,218.5 " fill="none" style="stroke:#181818;stroke-width:0.5;"/><text fill="#000000" font-family="sans-serif" font-size="14" lengthAdjust="spacing" textLength="66" x="6" y="234.5332">Apprenant</text></g><!--link formateur to Gestion des t?ches--><g id="link_formateur_Gestion des t&#226;ches"><path d="M72,87.79 C90.81,88.84 109.4892,89.8872 133.2492,91.2072 " fill="none" id="formateur-to-Gestion des t&#226;ches" style="stroke:#181818;stroke-width:1.0;"/><polygon fill="#181818" points="139.24,91.54,130.4757,87.0469,134.2477,91.2626,130.032,95.0346,139.24,91.54" style="stroke:#181818;stroke-width:1.0;"/></g><!--link apprenant to Consulter ses t?ches--><g id="link_apprenant_Consulter ses t&#226;ches"><path d="M72,197.21 C89.5,196.23 106.0893,195.3048 128.2793,194.0648 " fill="none" id="apprenant-to-Consulter ses t&#226;ches" style="stroke:#181818;stroke-width:1.0;"/><polygon fill="#181818" points="134.27,193.73,125.0608,190.2384,129.2778,194.009,125.5072,198.2259,134.27,193.73" style="stroke:#181818;stroke-width:1.0;"/></g><!--reverse link Gestion des t?ches to Consulter ses t?ches--><g id="link_Gestion des t&#226;ches_Consulter ses t&#226;ches"><path d="M220,121.02 C220,138.9 220,150.78 220,168.66 " fill="none" id="Gestion des t&#226;ches-backto-Consulter ses t&#226;ches" style="stroke:#181818;stroke-width:1.0;stroke-dasharray:7.0,7.0;"/><polygon fill="#181818" points="220,115.02,216,124.02,220,120.02,224,124.02,220,115.02" style="stroke:#181818;stroke-width:1.0;"/></g><!--reverse link Consulter ses t?ches to filtrer par projet--><g id="link_Consulter ses t&#226;ches_filtrer par projet"><path d="M259.7009,210.2695 C289.0209,225.9495 327.84,245.49 368,261 C390.95,269.86 417.1,277.69 439.2,283.69 " fill="none" id="Consulter ses t&#226;ches-backto-filtrer par projet" style="stroke:#181818;stroke-width:1.0;stroke-dasharray:7.0,7.0;"/><polygon fill="#181818" points="254.41,207.44,260.46,215.2116,258.8191,209.7979,264.2327,208.157,254.41,207.44" style="stroke:#181818;stroke-width:1.0;"/></g><!--reverse link Consulter ses t?ches to filtrer t?che par ?quipe--><g id="link_Consulter ses t&#226;ches_filtrer t&#226;che par &#233;quipe"><path d="M303.0322,199.4057 C338.0022,203.8457 373.55,208.35 408.99,212.85 " fill="none" id="Consulter ses t&#226;ches-backto-filtrer t&#226;che par &#233;quipe" style="stroke:#181818;stroke-width:1.0;stroke-dasharray:7.0,7.0;"/><polygon fill="#181818" points="297.08,198.65,305.5045,203.7517,302.0402,199.2798,306.5121,195.8154,297.08,198.65" style="stroke:#181818;stroke-width:1.0;"/></g><!--reverse link Consulter ses t?ches to Affichage en diagramme de gantt--><g id="link_Consulter ses t&#226;ches_Affichage en diagramme de gantt"><path d="M294.8721,175.4906 C327.1321,169.5906 360.29,163.53 395.3,157.13 " fill="none" id="Consulter ses t&#226;ches-backto-Affichage en diagramme de gantt" style="stroke:#181818;stroke-width:1.0;stroke-dasharray:7.0,7.0;"/><polygon fill="#181818" points="288.97,176.57,298.5428,178.8856,293.8884,175.6705,297.1035,171.0161,288.97,176.57" style="stroke:#181818;stroke-width:1.0;"/></g><!--reverse link Consulter ses t?ches to Affichage Kanban--><g id="link_Consulter ses t&#226;ches_Affichage Kanban"><path d="M255.2234,166.7643 C296.2834,140.1243 361.77,97.82 368,95 C388.52,85.71 412.11,78.23 432.99,72.6 " fill="none" id="Consulter ses t&#226;ches-backto-Affichage Kanban" style="stroke:#181818;stroke-width:1.0;stroke-dasharray:7.0,7.0;"/><polygon fill="#181818" points="250.19,170.03,259.9172,168.487,254.3845,167.3086,255.563,161.7758,250.19,170.03" style="stroke:#181818;stroke-width:1.0;"/></g><!--reverse link Affichage en diagramme de gantt to Affichage par phase de projet--><g id="link_Affichage en diagramme de gantt_Affichage par phase de projet"><path d="M616.6065,144.3035 C637.2365,145.0035 652.6,145.53 672.97,146.23 " fill="none" id="Affichage en diagramme de gantt-backto-Affichage par phase de projet" style="stroke:#181818;stroke-width:1.0;stroke-dasharray:7.0,7.0;"/><polygon fill="#181818" points="610.61,144.1,619.4692,148.4029,615.6071,144.2696,619.7405,140.4075,610.61,144.1" style="stroke:#181818;stroke-width:1.0;"/></g><!--reverse link Affichage en diagramme de gantt to les t?ches sont cliquable--><g id="link_Affichage en diagramme de gantt_les t&#226;ches sont cliquable"><path d="M566.663,163.8421 C617.283,179.7821 679.1,199.26 726.35,214.15 " fill="none" id="Affichage en diagramme de gantt-backto-les t&#226;ches sont cliquable" style="stroke:#181818;stroke-width:1.0;stroke-dasharray:7.0,7.0;"/><polygon fill="#181818" points="560.94,162.04,568.323,168.5585,565.7091,163.5418,570.7259,160.9279,560.94,162.04" style="stroke:#181818;stroke-width:1.0;"/></g><!--reverse link Affichage Kanban to Modifier le status de la t?che--><g id="link_Affichage Kanban_Modifier le status de la t&#226;che"><path d="M574.8687,61.7229 C607.5587,62.3929 640.12,63.06 675.46,63.79 " fill="none" id="Affichage Kanban-backto-Modifier le status de la t&#226;che" style="stroke:#181818;stroke-width:1.0;stroke-dasharray:7.0,7.0;"/><polygon fill="#181818" points="568.87,61.6,577.7861,65.7836,573.869,61.7025,577.9501,57.7853,568.87,61.6" style="stroke:#181818;stroke-width:1.0;"/></g><!--SRC=[bP8zJWCn48LxdsAq3KcHIBG88KL8K23EW2RUyQw9rtRisGfn6JhEaOinwzsGW824miNyV6_csNPa63X0iatBKDj4cctmIYdK71BSXTGXKvy0CvXzC1LNCIRow7aeuZvGAgBUO4DGnKtp55Du9ixBXlAWlE3TcsufBtNmkNUCGxA25va8Xm6mMDm0pEv71chAC75paBxFMQLlTZjAKO9yrAX-4u3hvL_CpnM1X3BMSP9AH3d5sDd8c2taxdtRsqWdqPKnLhV3JP9OiDWax3eICz28T_u7_u1-ZRu0fqI_eyLgYxcq77a-JySTbe8SvC6qiziUrwwu_wepBJc2Zw6sneejHv3bb_Hva7OugSsLUXLUNO0FJDFt3GQmxgo7AwXA-h9I7m00]--></g></svg>