<?xml version="1.0" encoding="us-ascii" standalone="no"?><svg xmlns="http://www.w3.org/2000/svg" xmlns:xlink="http://www.w3.org/1999/xlink" contentStyleType="text/css" height="421px" preserveAspectRatio="none" style="width:608px;height:421px;background:#FFFFFF;" version="1.1" viewBox="0 0 608 421" width="608px" zoomAndPan="magnify"><defs/><g><!--cluster pkg_competences--><g id="cluster_pkg_competences"><path d="M118.5,6 L248.5,6 A3.75,3.75 0 0 1 251,8.5 L258,29.6094 L598.5,29.6094 A2.5,2.5 0 0 1 601,32.1094 L601,411.5 A2.5,2.5 0 0 1 598.5,414 L118.5,414 A2.5,2.5 0 0 1 116,411.5 L116,8.5 A2.5,2.5 0 0 1 118.5,6 " fill="none" style="stroke:#000000;stroke-width:1.5;"/><line style="stroke:#000000;stroke-width:1.5;" x1="116" x2="258" y1="29.6094" y2="29.6094"/><text fill="#000000" font-family="sans-serif" font-size="14" font-weight="bold" lengthAdjust="spacing" textLength="129" x="120" y="22.5332">pkg_competences</text></g><g id="elem_gestion des formateurs"><ellipse cx="236.0017" cy="298.0003" fill="#F1F1F1" rx="93.0017" ry="21.0003" style="stroke:#181818;stroke-width:0.5;"/><text fill="#000000" font-family="sans-serif" font-size="14" lengthAdjust="spacing" textLength="145" x="163.5017" y="301.7289">gestion des formateurs</text></g><g id="elem_gestion des personnes"><ellipse cx="492.566" cy="297.9132" fill="#F1F1F1" rx="92.566" ry="20.9132" style="stroke:#181818;stroke-width:0.5;"/><text fill="#000000" font-family="sans-serif" font-size="14" lengthAdjust="spacing" textLength="144" x="420.566" y="301.6417">gestion des personnes</text></g><g id="elem_gestion des apprenants"><ellipse cx="235.7514" cy="219.8503" fill="#F1F1F1" rx="94.7514" ry="21.3503" style="stroke:#181818;stroke-width:0.5;"/><text fill="#000000" font-family="sans-serif" font-size="14" lengthAdjust="spacing" textLength="149" x="161.2514" y="223.5788">gestion des apprenants</text></g><g id="elem_gestion des groupes"><ellipse cx="236.1163" cy="62.1233" fill="#F1F1F1" rx="86.1163" ry="19.6233" style="stroke:#181818;stroke-width:0.5;"/><text fill="#000000" font-family="sans-serif" font-size="14" lengthAdjust="spacing" textLength="129" x="171.6163" y="65.8518">gestion des groupes</text></g><g id="elem_ajouter groupe"><ellipse cx="492.4259" cy="190.7852" fill="#F1F1F1" rx="71.9259" ry="16.7852" style="stroke:#181818;stroke-width:0.5;"/><text fill="#000000" font-family="sans-serif" font-size="14" lengthAdjust="spacing" textLength="93" x="442.9259" y="195.3018">ajouter groupe</text></g><g id="elem_Affectation des apprenants"><ellipse cx="236.0894" cy="140.2179" fill="#F1F1F1" rx="104.0894" ry="23.2179" style="stroke:#181818;stroke-width:0.5;"/><text fill="#000000" font-family="sans-serif" font-size="14" lengthAdjust="spacing" textLength="170" x="151.0894" y="143.9464">Affectation des apprenants</text></g><g id="elem_supprimer groupe"><ellipse cx="492.5785" cy="121.2157" fill="#F1F1F1" rx="79.0785" ry="18.2157" style="stroke:#181818;stroke-width:0.5;"/><text fill="#000000" font-family="sans-serif" font-size="14" lengthAdjust="spacing" textLength="112" x="435.1751" y="125.3395">supprimer groupe</text></g><g id="elem_Intialiser le mot de passe"><ellipse cx="235.837" cy="375.9674" fill="#F1F1F1" rx="97.837" ry="21.9674" style="stroke:#181818;stroke-width:0.5;"/><text fill="#000000" font-family="sans-serif" font-size="14" lengthAdjust="spacing" textLength="156" x="157.837" y="379.6959">Intialiser le mot de passe</text></g><g id="elem_GMN22"><path d="M454.5,42 L454.5,52.02 L321.39,59.68 L454.5,60.02 L454.5,68.3516 A0,0 0 0 0 454.5,68.3516 L530.5,68.3516 A0,0 0 0 0 530.5,68.3516 L530.5,52 L520.5,42 L454.5,42 A0,0 0 0 0 454.5,42 " fill="#FEFFDD" style="stroke:#181818;stroke-width:0.5;"/><path d="M520.5,42 L520.5,52 L530.5,52 L520.5,42 " fill="#FEFFDD" style="stroke:#181818;stroke-width:0.5;"/><text fill="#000000" font-family="sans-serif" font-size="13" lengthAdjust="spacing" textLength="55" x="460.5" y="60.4951">"Modifier"</text></g><!--entity formateur--><g id="elem_formateur"><ellipse cx="39" cy="93.5" fill="#F1F1F1" rx="8" ry="8" style="stroke:#181818;stroke-width:0.5;"/><path d="M39,101.5 L39,128.5 M26,109.5 L52,109.5 M39,128.5 L26,143.5 M39,128.5 L52,143.5 " fill="none" style="stroke:#181818;stroke-width:0.5;"/><text fill="#000000" font-family="sans-serif" font-size="14" lengthAdjust="spacing" textLength="66" x="6" y="159.5332">Formateur</text></g><!--entity admin--><g id="elem_admin"><ellipse cx="39" cy="267.5" fill="#F1F1F1" rx="8" ry="8" style="stroke:#181818;stroke-width:0.5;"/><path d="M39,275.5 L39,302.5 M26,283.5 L52,283.5 M39,302.5 L26,317.5 M39,302.5 L52,317.5 " fill="none" style="stroke:#181818;stroke-width:0.5;"/><text fill="#000000" font-family="sans-serif" font-size="14" lengthAdjust="spacing" textLength="39" x="19.5" y="333.5332">Admin</text></g><!--link gestion des formateurs to gestion des personnes--><g id="link_gestion des formateurs_gestion des personnes"><path d="M329.24,298 C352.14,298 370.69,298 393.57,298 " fill="none" id="gestion des formateurs-to-gestion des personnes" style="stroke:#181818;stroke-width:1.0;stroke-dasharray:7.0,7.0;"/><polygon fill="#181818" points="399.57,298,390.57,294,394.57,298,390.57,302,399.57,298" style="stroke:#181818;stroke-width:1.0;"/></g><!--link gestion des apprenants to gestion des personnes--><g id="link_gestion des apprenants_gestion des personnes"><path d="M293.17,237.21 C335.91,250.31 388.6734,266.4817 431.0534,279.4717 " fill="none" id="gestion des apprenants-to-gestion des personnes" style="stroke:#181818;stroke-width:1.0;stroke-dasharray:7.0,7.0;"/><polygon fill="#181818" points="436.79,281.23,429.3574,274.7681,432.0095,279.7647,427.0129,282.4169,436.79,281.23" style="stroke:#181818;stroke-width:1.0;"/></g><!--link formateur to gestion des apprenants--><g id="link_formateur_gestion des apprenants"><path d="M72.05,154.66 C82.84,163.77 95.36,173.15 108,180 C127,190.31 149.06,198.42 169.41,204.57 " fill="none" id="formateur-gestion des apprenants" style="stroke:#181818;stroke-width:1.0;"/></g><!--link admin to gestion des formateurs--><g id="link_admin_gestion des formateurs"><path d="M58.7,298 C78.43,298 111.02,298 142.86,298 " fill="none" id="admin-gestion des formateurs" style="stroke:#181818;stroke-width:1.0;"/></g><!--link formateur to gestion des groupes--><g id="link_formateur_gestion des groupes"><path d="M72.01,111.72 C83.32,107.51 96.17,102.89 108,99 C131.67,91.21 158.09,83.38 180.67,76.94 " fill="none" id="formateur-gestion des groupes" style="stroke:#181818;stroke-width:1.0;"/></g><!--reverse link gestion des groupes to ajouter groupe--><g id="link_gestion des groupes_ajouter groupe"><path d="M297.2661,78.8737 C313.4861,84.5237 325.2,89.88 340,99 C371.31,118.3 368.89,136.38 400,156 C414.24,164.98 431.15,172.25 446.54,177.79 " fill="none" id="gestion des groupes-backto-ajouter groupe" style="stroke:#181818;stroke-width:1.0;stroke-dasharray:7.0,7.0;"/><polygon fill="#181818" points="291.6,76.9,298.7833,83.6379,296.3217,78.5447,301.4149,76.0832,291.6,76.9" style="stroke:#181818;stroke-width:1.0;"/></g><!--link Affectation des apprenants to ajouter groupe--><g id="link_Affectation des apprenants_ajouter groupe"><path d="M313.7,155.37 C353.51,163.35 395.3167,171.7324 431.2867,178.9324 " fill="none" id="Affectation des apprenants-to-ajouter groupe" style="stroke:#181818;stroke-width:1.0;stroke-dasharray:7.0,7.0;"/><polygon fill="#181818" points="437.17,180.11,429.1302,174.4213,432.2673,179.1286,427.56,182.2657,437.17,180.11" style="stroke:#181818;stroke-width:1.0;"/></g><!--reverse link gestion des groupes to supprimer groupe--><g id="link_gestion des groupes_supprimer groupe"><path d="M302.5149,77.1852 C344.8249,86.9952 395.34,98.71 436.55,108.26 " fill="none" id="gestion des groupes-backto-supprimer groupe" style="stroke:#181818;stroke-width:1.0;stroke-dasharray:7.0,7.0;"/><polygon fill="#181818" points="296.67,75.83,304.5339,81.7594,301.5408,76.9593,306.3409,73.9662,296.67,75.83" style="stroke:#181818;stroke-width:1.0;"/></g><!--link Intialiser le mot de passe to gestion des personnes--><g id="link_Intialiser le mot de passe_gestion des personnes"><path d="M294.75,358.3 C337.28,345.27 389.0131,329.4074 430.8631,316.5874 " fill="none" id="Intialiser le mot de passe-to-gestion des personnes" style="stroke:#181818;stroke-width:1.0;stroke-dasharray:7.0,7.0;"/><polygon fill="#181818" points="436.6,314.83,426.8231,313.6415,431.8193,316.2945,429.1663,321.2907,436.6,314.83" style="stroke:#181818;stroke-width:1.0;"/></g><!--SRC=[ZL8xRiCm3DrrYWTFyH0Ve0WAP2dGeMSe29borTYY8D5JqBj72jp0RGsZcyJtuHCfc96TGWN93n-AtYUswYKOGrObuKNIHCfp0cMuxyi2dll9XmfGFHWJoLveOCJBy6vbYgmSB6TSZG4E0-VgZ9vNJha5kkxv9nevPGc12_XRI34c3XJq7y974noFEpQ5US__bxLEQVODXoHpt0hy073gEXpeKsRbj9JRoZuxLsPEczdkBzpGx7J8Sz7xQSMlWjUWdaQVItbaJ59MNVP4ENExDyQg3QAyV0znQ3PQDtX2yoQzTvvJOxvGfcLk]--></g></svg>