<?xml version="1.0" encoding="us-ascii" standalone="no"?><svg xmlns="http://www.w3.org/2000/svg" xmlns:xlink="http://www.w3.org/1999/xlink" contentStyleType="text/css" height="421px" preserveAspectRatio="none" style="width:608px;height:421px;background:#FFFFFF;" version="1.1" viewBox="0 0 608 421" width="608px" zoomAndPan="magnify"><defs/><g><!--cluster pkg_rh--><g id="cluster_pkg_rh"><path d="M118.5,6 L168.5,6 A3.75,3.75 0 0 1 171,8.5 L178,29.6094 L598.5,29.6094 A2.5,2.5 0 0 1 601,32.1094 L601,411.5 A2.5,2.5 0 0 1 598.5,414 L118.5,414 A2.5,2.5 0 0 1 116,411.5 L116,8.5 A2.5,2.5 0 0 1 118.5,6 " fill="none" style="stroke:#000000;stroke-width:1.5;"/><line style="stroke:#000000;stroke-width:1.5;" x1="116" x2="178" y1="29.6094" y2="29.6094"/><text fill="#000000" font-family="sans-serif" font-size="14" font-weight="bold" lengthAdjust="spacing" textLength="49" x="120" y="22.5332">pkg_rh</text></g><g id="elem_gestion des formateurs"><ellipse cx="236.0017" cy="377.0003" fill="#F1F1F1" rx="93.0017" ry="21.0003" style="stroke:#181818;stroke-width:0.5;"/><text fill="#000000" font-family="sans-serif" font-size="14" lengthAdjust="spacing" textLength="145" x="163.5017" y="380.7289">gestion des formateurs</text></g><g id="elem_gestion des personnes"><ellipse cx="492.566" cy="334.9132" fill="#F1F1F1" rx="92.566" ry="20.9132" style="stroke:#181818;stroke-width:0.5;"/><text fill="#000000" font-family="sans-serif" font-size="14" lengthAdjust="spacing" textLength="144" x="420.566" y="338.6417">gestion des personnes</text></g><g id="elem_gestion des apprenants"><ellipse cx="235.7514" cy="219.8503" fill="#F1F1F1" rx="94.7514" ry="21.3503" style="stroke:#181818;stroke-width:0.5;"/><text fill="#000000" font-family="sans-serif" font-size="14" lengthAdjust="spacing" textLength="149" x="161.2514" y="223.5788">gestion des apprenants</text></g><g id="elem_filtrer par groupe"><ellipse cx="492.7363" cy="261.2473" fill="#F1F1F1" rx="76.7363" ry="17.7473" style="stroke:#181818;stroke-width:0.5;"/><text fill="#000000" font-family="sans-serif" font-size="14" lengthAdjust="spacing" textLength="106" x="437.2006" y="265.6555">filtrer par groupe</text></g><g id="elem_gestion des groupes"><ellipse cx="236.1163" cy="62.1233" fill="#F1F1F1" rx="86.1163" ry="19.6233" style="stroke:#181818;stroke-width:0.5;"/><text fill="#000000" font-family="sans-serif" font-size="14" lengthAdjust="spacing" textLength="129" x="171.6163" y="65.8518">gestion des groupes</text></g><g id="elem_ajouter groupe"><ellipse cx="492.4259" cy="190.7852" fill="#F1F1F1" rx="71.9259" ry="16.7852" style="stroke:#181818;stroke-width:0.5;"/><text fill="#000000" font-family="sans-serif" font-size="14" lengthAdjust="spacing" textLength="93" x="442.9259" y="195.3018">ajouter groupe</text></g><g id="elem_Affectation des apprenants"><ellipse cx="236.0894" cy="140.2179" fill="#F1F1F1" rx="104.0894" ry="23.2179" style="stroke:#181818;stroke-width:0.5;"/><text fill="#000000" font-family="sans-serif" font-size="14" lengthAdjust="spacing" textLength="170" x="151.0894" y="143.9464">Affectation des apprenants</text></g><g id="elem_supprimer groupe"><ellipse cx="492.5785" cy="60.2157" fill="#F1F1F1" rx="79.0785" ry="18.2157" style="stroke:#181818;stroke-width:0.5;"/><text fill="#000000" font-family="sans-serif" font-size="14" lengthAdjust="spacing" textLength="112" x="435.1751" y="64.3395">supprimer groupe</text></g><g id="elem_Intialiser le mot de passe"><ellipse cx="235.837" cy="298.9674" fill="#F1F1F1" rx="97.837" ry="21.9674" style="stroke:#181818;stroke-width:0.5;"/><text fill="#000000" font-family="sans-serif" font-size="14" lengthAdjust="spacing" textLength="156" x="157.837" y="302.6959">Intialiser le mot de passe</text></g><g id="elem_GMN24"><path d="M454.5,113 L454.5,113 L294.43,76.44 L454.5,121 L454.5,139.3516 A0,0 0 0 0 454.5,139.3516 L530.5,139.3516 A0,0 0 0 0 530.5,139.3516 L530.5,123 L520.5,113 L454.5,113 A0,0 0 0 0 454.5,113 " fill="#FEFFDD" style="stroke:#181818;stroke-width:0.5;"/><path d="M520.5,113 L520.5,123 L530.5,123 L520.5,113 " fill="#FEFFDD" style="stroke:#181818;stroke-width:0.5;"/><text fill="#000000" font-family="sans-serif" font-size="13" lengthAdjust="spacing" textLength="55" x="460.5" y="131.4951">"Modifier"</text></g><!--entity formateur--><g id="elem_formateur"><ellipse cx="39" cy="110.5" fill="#F1F1F1" rx="8" ry="8" style="stroke:#181818;stroke-width:0.5;"/><path d="M39,118.5 L39,145.5 M26,126.5 L52,126.5 M39,145.5 L26,160.5 M39,145.5 L52,160.5 " fill="none" style="stroke:#181818;stroke-width:0.5;"/><text fill="#000000" font-family="sans-serif" font-size="14" lengthAdjust="spacing" textLength="66" x="6" y="176.5332">Formateur</text></g><!--entity admin--><g id="elem_admin"><ellipse cx="39" cy="346.5" fill="#F1F1F1" rx="8" ry="8" style="stroke:#181818;stroke-width:0.5;"/><path d="M39,354.5 L39,381.5 M26,362.5 L52,362.5 M39,381.5 L26,396.5 M39,381.5 L52,396.5 " fill="none" style="stroke:#181818;stroke-width:0.5;"/><text fill="#000000" font-family="sans-serif" font-size="14" lengthAdjust="spacing" textLength="39" x="19.5" y="412.5332">Admin</text></g><!--link gestion des formateurs to gestion des personnes--><g id="link_gestion des formateurs_gestion des personnes"><path d="M311.64,364.68 C344.93,359.19 378.1402,353.7077 411.3802,348.2177 " fill="none" id="gestion des formateurs-to-gestion des personnes" style="stroke:#181818;stroke-width:1.0;stroke-dasharray:7.0,7.0;"/><polygon fill="#181818" points="417.3,347.24,407.7685,344.7601,412.3668,348.0548,409.0721,352.6531,417.3,347.24" style="stroke:#181818;stroke-width:1.0;"/></g><!--link gestion des apprenants to gestion des personnes--><g id="link_gestion des apprenants_gestion des personnes"><path d="M289.69,237.75 C306.09,243.86 324.04,251.15 340,259 C368.11,272.83 372.18,281.6 400,296 C414.41,303.46 425.0495,308.3733 439.7395,314.5533 " fill="none" id="gestion des apprenants-to-gestion des personnes" style="stroke:#181818;stroke-width:1.0;stroke-dasharray:7.0,7.0;"/><polygon fill="#181818" points="445.27,316.88,438.5253,309.703,440.6612,314.9411,435.4231,317.077,445.27,316.88" style="stroke:#181818;stroke-width:1.0;"/></g><!--reverse link gestion des apprenants to filtrer par groupe--><g id="link_gestion des apprenants_filtrer par groupe"><path d="M319.9736,233.3643 C356.8436,239.3043 394.48,245.37 429.22,250.97 " fill="none" id="gestion des apprenants-backto-filtrer par groupe" style="stroke:#181818;stroke-width:1.0;stroke-dasharray:7.0,7.0;"/><polygon fill="#181818" points="314.05,232.41,322.2992,237.7906,318.9863,233.2053,323.5716,229.8924,314.05,232.41" style="stroke:#181818;stroke-width:1.0;"/></g><!--link formateur to gestion des apprenants--><g id="link_formateur_gestion des apprenants"><path d="M72.12,161.31 C83.22,167.82 95.91,174.7 108,180 C128.96,189.18 152.7,197.25 173.94,203.68 " fill="none" id="formateur-gestion des apprenants" style="stroke:#181818;stroke-width:1.0;"/></g><!--link admin to gestion des formateurs--><g id="link_admin_gestion des formateurs"><path d="M58.7,377 C78.43,377 111.02,377 142.86,377 " fill="none" id="admin-gestion des formateurs" style="stroke:#181818;stroke-width:1.0;"/></g><!--link formateur to gestion des groupes--><g id="link_formateur_gestion des groupes"><path d="M72.22,118.63 C83.22,111.67 95.83,104.41 108,99 C129.19,89.58 153.43,81.83 175.02,75.9 " fill="none" id="formateur-gestion des groupes" style="stroke:#181818;stroke-width:1.0;"/></g><!--reverse link gestion des groupes to ajouter groupe--><g id="link_gestion des groupes_ajouter groupe"><path d="M297.2661,78.8737 C313.4861,84.5237 325.2,89.88 340,99 C371.31,118.3 368.89,136.38 400,156 C414.24,164.98 431.15,172.25 446.54,177.79 " fill="none" id="gestion des groupes-backto-ajouter groupe" style="stroke:#181818;stroke-width:1.0;stroke-dasharray:7.0,7.0;"/><polygon fill="#181818" points="291.6,76.9,298.7833,83.6379,296.3217,78.5447,301.4149,76.0832,291.6,76.9" style="stroke:#181818;stroke-width:1.0;"/></g><!--link Affectation des apprenants to ajouter groupe--><g id="link_Affectation des apprenants_ajouter groupe"><path d="M313.7,155.37 C353.51,163.35 395.3167,171.7324 431.2867,178.9324 " fill="none" id="Affectation des apprenants-to-ajouter groupe" style="stroke:#181818;stroke-width:1.0;stroke-dasharray:7.0,7.0;"/><polygon fill="#181818" points="437.17,180.11,429.1302,174.4213,432.2673,179.1286,427.56,182.2657,437.17,180.11" style="stroke:#181818;stroke-width:1.0;"/></g><!--reverse link gestion des groupes to supprimer groupe--><g id="link_gestion des groupes_supprimer groupe"><path d="M328.0998,61.2832 C357.5798,61.0532 384.46,60.84 413.35,60.61 " fill="none" id="gestion des groupes-backto-supprimer groupe" style="stroke:#181818;stroke-width:1.0;stroke-dasharray:7.0,7.0;"/><polygon fill="#181818" points="322.1,61.33,331.1309,65.2597,327.0998,61.291,331.0685,57.2599,322.1,61.33" style="stroke:#181818;stroke-width:1.0;"/></g><!--link Intialiser le mot de passe to gestion des personnes--><g id="link_Intialiser le mot de passe_gestion des personnes"><path d="M319.28,310.64 C349.48,314.91 377.6292,318.8896 407.4592,323.1096 " fill="none" id="Intialiser le mot de passe-to-gestion des personnes" style="stroke:#181818;stroke-width:1.0;stroke-dasharray:7.0,7.0;"/><polygon fill="#181818" points="413.4,323.95,405.049,318.7288,408.4493,323.2496,403.9284,326.6499,413.4,323.95" style="stroke:#181818;stroke-width:1.0;"/></g><!--SRC=[fLAxRiCm3Dpr5GTFzX1_G54Ko5AWGx-X86pAKMEB0aLFHV-zSf86RcjuwIRgUCVZ0svaRp21Xk5aw8DoPq6YSzIPA9v59pAU5PJXluCRUEod41U0beTpYRep3Onq7jxqX0_dW7hWl0YYvvL0Re2sVVg99jOiCN81VnCf9UL8qVv3V6nRr3wCfgn8f1XKviHDuToDuN3OKIYPbrR_PgqxS_k2rweRNk_0rIczosoyTbaVlI_heKrlbwbiS7OgvBdmmxJANmWlqGAD8PVlaJ59kOgoKigPcxtHBzmenhTB4ezgetI51rIlqWSVM2ltYJ8jzmK0]--></g></svg>