<?xml version="1.0" encoding="us-ascii" standalone="no"?><svg xmlns="http://www.w3.org/2000/svg" xmlns:xlink="http://www.w3.org/1999/xlink" contentStyleType="text/css" height="174px" preserveAspectRatio="none" style="width:294px;height:174px;background:#FFFFFF;" version="1.1" viewBox="0 0 294 174" width="294px" zoomAndPan="magnify"><defs/><g><!--cluster pkg_posts--><g id="cluster_pkg_posts"><path d="M91.5,6 L165.5,6 A3.75,3.75 0 0 1 168,8.5 L175,29.6094 L284.5,29.6094 A2.5,2.5 0 0 1 287,32.1094 L287,164.5 A2.5,2.5 0 0 1 284.5,167 L91.5,167 A2.5,2.5 0 0 1 89,164.5 L89,8.5 A2.5,2.5 0 0 1 91.5,6 " fill="none" style="stroke:#000000;stroke-width:1.5;"/><line style="stroke:#000000;stroke-width:1.5;" x1="89" x2="175" y1="29.6094" y2="29.6094"/><text fill="#000000" font-family="sans-serif" font-size="14" font-weight="bold" lengthAdjust="spacing" textLength="73" x="93" y="22.5332">pkg_posts</text></g><g id="elem_gestion des articles"><ellipse cx="188.169" cy="61.0338" fill="#F1F1F1" rx="83.169" ry="19.0338" style="stroke:#181818;stroke-width:0.5;"/><text fill="#000000" font-family="sans-serif" font-size="14" lengthAdjust="spacing" textLength="122" x="127.169" y="64.7623">gestion des articles</text></g><g id="elem_gestion des tags"><ellipse cx="187.9763" cy="133.0953" fill="#F1F1F1" rx="75.9763" ry="17.5953" style="stroke:#181818;stroke-width:0.5;"/><text fill="#000000" font-family="sans-serif" font-size="14" lengthAdjust="spacing" textLength="104" x="133.0467" y="137.5957">gestion des tags</text></g><!--entity admin--><g id="elem_admin"><ellipse cx="25.5" cy="66.5" fill="#F1F1F1" rx="8" ry="8" style="stroke:#181818;stroke-width:0.5;"/><path d="M25.5,74.5 L25.5,101.5 M12.5,82.5 L38.5,82.5 M25.5,101.5 L12.5,116.5 M25.5,101.5 L38.5,116.5 " fill="none" style="stroke:#181818;stroke-width:0.5;"/><text fill="#000000" font-family="sans-serif" font-size="14" lengthAdjust="spacing" textLength="39" x="6" y="132.5332">Admin</text></g><!--link admin to gestion des articles--><g id="link_admin_gestion des articles"><path d="M45.23,92.8 C65.48,88.26 92.9653,82.0926 122.2253,75.5326 " fill="none" id="admin-to-gestion des articles" style="stroke:#181818;stroke-width:1.0;"/><polygon fill="#181818" points="128.08,74.22,118.4229,72.2858,123.2011,75.3138,120.1731,80.092,128.08,74.22" style="stroke:#181818;stroke-width:1.0;"/></g><!--link admin to gestion des tags--><g id="link_admin_gestion des tags"><path d="M45.23,101.2 C66.64,106 96.8153,112.7776 127.1953,119.5876 " fill="none" id="admin-to-gestion des tags" style="stroke:#181818;stroke-width:1.0;"/><polygon fill="#181818" points="133.05,120.9,125.1429,115.0283,128.1711,119.8063,123.393,122.8345,133.05,120.9" style="stroke:#181818;stroke-width:1.0;"/></g><!--SRC=[VOwn3i9034FtV8NL1HWwi38WyIKekakFgELokcH3_3ijT6QpR3_BYqo1C7GjZq3MBYdKAX5n2kkuvQTMi8CtGTGupLm4RIxtPXwE5n5-ASRn2XoB-3Q1B2lLGzCYVlhJ2Ivh_WQ83gWMif-nQKSk6BxsUQ0F]--></g></svg>