<?xml version="1.0" encoding="us-ascii" standalone="no"?><svg xmlns="http://www.w3.org/2000/svg" xmlns:xlink="http://www.w3.org/1999/xlink" contentStyleType="text/css" height="631px" preserveAspectRatio="none" style="width:511px;height:631px;background:#FFFFFF;" version="1.1" viewBox="0 0 511 631" width="511px" zoomAndPan="magnify"><defs/><g><!--cluster pkg_realisation_projet--><g id="cluster_pkg_realisation_projet"><path d="M210.5,6 L369.5,6 A3.75,3.75 0 0 1 372,8.5 L379,29.6094 L501.5,29.6094 A2.5,2.5 0 0 1 504,32.1094 L504,443.5 A2.5,2.5 0 0 1 501.5,446 L210.5,446 A2.5,2.5 0 0 1 208,443.5 L208,8.5 A2.5,2.5 0 0 1 210.5,6 " fill="none" style="stroke:#000000;stroke-width:1.5;"/><line style="stroke:#000000;stroke-width:1.5;" x1="208" x2="379" y1="29.6094" y2="29.6094"/><text fill="#000000" font-family="sans-serif" font-size="14" font-weight="bold" lengthAdjust="spacing" textLength="158" x="212" y="22.5332">pkg_realisation_projet</text></g><!--cluster pkg_projets--><g id="cluster_pkg_projets"><path d="M8.5,470 L93.5,470 A3.75,3.75 0 0 1 96,472.5 L103,493.6094 L442.5,493.6094 A2.5,2.5 0 0 1 445,496.1094 L445,621.5 A2.5,2.5 0 0 1 442.5,624 L8.5,624 A2.5,2.5 0 0 1 6,621.5 L6,472.5 A2.5,2.5 0 0 1 8.5,470 " fill="none" style="stroke:#000000;stroke-width:1.5;"/><line style="stroke:#000000;stroke-width:1.5;" x1="6" x2="103" y1="493.6094" y2="493.6094"/><text fill="#000000" font-family="sans-serif" font-size="14" font-weight="bold" lengthAdjust="spacing" textLength="84" x="10" y="486.5332">pkg_projets</text></g><g id="elem_Gestion des livrables"><ellipse cx="355.8923" cy="61.8785" fill="#F1F1F1" rx="87.3923" ry="19.8785" style="stroke:#181818;stroke-width:0.5;"/><text fill="#000000" font-family="sans-serif" font-size="14" lengthAdjust="spacing" textLength="132" x="289.8923" y="65.607">Gestion des livrables</text></g><g id="elem_Gestion cat&#233;gories des livrables"><ellipse cx="356.2025" cy="143.1405" fill="#F1F1F1" rx="118.7025" ry="26.1405" style="stroke:#181818;stroke-width:0.5;"/><text fill="#000000" font-family="sans-serif" font-size="14" lengthAdjust="spacing" textLength="202" x="255.2025" y="146.869">Gestion cat&#233;gories des livrables</text></g><g id="elem_Gestion des message"><ellipse cx="356.035" cy="224.807" fill="#F1F1F1" rx="89.535" ry="20.307" style="stroke:#181818;stroke-width:0.5;"/><text fill="#000000" font-family="sans-serif" font-size="14" lengthAdjust="spacing" textLength="137" x="287.535" y="228.5355">Gestion des message</text></g><g id="elem_R&#233;daction des message d'un projet"><ellipse cx="355.9763" cy="309.0953" fill="#F1F1F1" rx="128.4763" ry="28.0953" style="stroke:#181818;stroke-width:0.5;"/><text fill="#000000" font-family="sans-serif" font-size="14" lengthAdjust="spacing" textLength="223" x="244.4763" y="312.8238">R&#233;daction des message d'un projet</text></g><g id="elem_R&#233;daction des message d'une t&#226;che"><ellipse cx="355.7597" cy="400.7519" fill="#F1F1F1" rx="131.7597" ry="28.7519" style="stroke:#181818;stroke-width:0.5;"/><text fill="#000000" font-family="sans-serif" font-size="14" lengthAdjust="spacing" textLength="230" x="240.7597" y="404.4805">R&#233;daction des message d'une t&#226;che</text></g><g id="elem_Modifier projet"><ellipse cx="92.8567" cy="523.0713" fill="#F1F1F1" rx="70.8567" ry="16.5713" style="stroke:#181818;stroke-width:0.5;"/><text fill="#000000" font-family="sans-serif" font-size="14" lengthAdjust="spacing" textLength="90" x="44.8567" y="527.5879">Modifier projet</text></g><g id="elem_Modifier t&#226;che"><ellipse cx="93.0039" cy="591.0008" fill="#F1F1F1" rx="70.5039" ry="16.5008" style="stroke:#181818;stroke-width:0.5;"/><text fill="#000000" font-family="sans-serif" font-size="14" lengthAdjust="spacing" textLength="89" x="45.5039" y="595.5174">Modifier t&#226;che</text></g><g id="elem_valider la t&#226;che"><ellipse cx="356.0109" cy="591.0022" fill="#F1F1F1" rx="73.0109" ry="17.0022" style="stroke:#181818;stroke-width:0.5;"/><text fill="#000000" font-family="sans-serif" font-size="14" lengthAdjust="spacing" textLength="96" x="305.0109" y="595.5188">valider la t&#226;che</text></g><!--entity apprenant--><g id="elem_apprenant"><ellipse cx="93" cy="31.5" fill="#F1F1F1" rx="8" ry="8" style="stroke:#181818;stroke-width:0.5;"/><path d="M93,39.5 L93,66.5 M80,47.5 L106,47.5 M93,66.5 L80,81.5 M93,66.5 L106,81.5 " fill="none" style="stroke:#181818;stroke-width:0.5;"/><text fill="#000000" font-family="sans-serif" font-size="14" lengthAdjust="spacing" textLength="66" x="60" y="97.5332">Apprenant</text></g><!--entity formateur--><g id="elem_formateur"><ellipse cx="93" cy="169.5" fill="#F1F1F1" rx="8" ry="8" style="stroke:#181818;stroke-width:0.5;"/><path d="M93,177.5 L93,204.5 M80,185.5 L106,185.5 M93,204.5 L80,219.5 M93,204.5 L106,219.5 " fill="none" style="stroke:#181818;stroke-width:0.5;"/><text fill="#000000" font-family="sans-serif" font-size="14" lengthAdjust="spacing" textLength="66" x="60" y="235.5332">Formateur</text></g><!--link apprenant to Gestion des livrables--><g id="link_apprenant_Gestion des livrables"><path d="M126,62 C161.26,62 219.44,62 268.34,62 " fill="none" id="apprenant-Gestion des livrables" style="stroke:#181818;stroke-width:1.0;"/></g><!--link formateur to Gestion cat?gories des livrables--><g id="link_formateur_Gestion cat&#233;gories des livrables"><path d="M126,193.01 C162.01,185.15 221.93,172.06 271.44,161.25 " fill="none" id="formateur-Gestion cat&#233;gories des livrables" style="stroke:#181818;stroke-width:1.0;"/></g><!--link formateur to Gestion des message--><g id="link_formateur_Gestion des message"><path d="M126,203.07 C162.42,206.55 223.29,212.38 273.12,217.16 " fill="none" id="formateur-Gestion des message" style="stroke:#181818;stroke-width:1.0;"/></g><!--reverse link Gestion des message to R?daction des message d'un projet--><g id="link_Gestion des message_R&#233;daction des message d'un projet"><path d="M356,251.92 C356,263.54 356,269.16 356,280.78 " fill="none" id="Gestion des message-backto-R&#233;daction des message d'un projet" style="stroke:#181818;stroke-width:1.0;stroke-dasharray:7.0,7.0;"/><polygon fill="#181818" points="356,245.92,352,254.92,356,250.92,360,254.92,356,245.92" style="stroke:#181818;stroke-width:1.0;"/></g><!--reverse link Gestion des message to R?daction des message d'une t?che--><g id="link_Gestion des message_R&#233;daction des message d'une t&#226;che"><path d="M260.4496,227.8229 C225.2596,233.9729 195.88,247.64 182,280.5 C168.91,311.48 171.02,336.94 200,354 C218.89,365.12 240.64,373.81 261.79,380.53 " fill="none" id="Gestion des message-backto-R&#233;daction des message d'une t&#226;che" style="stroke:#181818;stroke-width:1.0;stroke-dasharray:7.0,7.0;"/><polygon fill="#181818" points="266.36,226.79,256.8057,224.3991,261.4347,227.6508,258.183,232.2797,266.36,226.79" style="stroke:#181818;stroke-width:1.0;"/></g><!--reverse link Modifier projet to R?daction des message d'un projet--><g id="link_Modifier projet_R&#233;daction des message d'un projet"><path d="M101.8005,500.876 C114.3905,467.006 145.68,395 200,354 C216.1,341.85 235.41,332.97 254.84,326.49 " fill="none" id="Modifier projet-backto-R&#233;daction des message d'un projet" style="stroke:#181818;stroke-width:1.0;stroke-dasharray:7.0,7.0;"/><polygon fill="#181818" points="99.71,506.5,106.5952,499.4577,101.4521,501.8133,99.0965,496.6703,99.71,506.5" style="stroke:#181818;stroke-width:1.0;"/></g><!--reverse link Modifier t?che to R?daction des message d'une t?che--><g id="link_Modifier t&#226;che_R&#233;daction des message d'une t&#226;che"><path d="M138.4859,574.7088 C149.3959,569.5588 155.23,565.42 164,557 C188.39,533.59 176.44,514.24 200,490 C226.17,463.08 262.23,441.72 292.98,426.69 " fill="none" id="Modifier t&#226;che-backto-R&#233;daction des message d'une t&#226;che" style="stroke:#181818;stroke-width:1.0;stroke-dasharray:7.0,7.0;"/><polygon fill="#181818" points="133.06,577.27,142.9063,577.0454,137.5816,575.1356,139.4913,569.8109,133.06,577.27" style="stroke:#181818;stroke-width:1.0;"/></g><!--reverse link Modifier t?che to valider la t?che--><g id="link_Modifier t&#226;che_valider la t&#226;che"><path d="M169.6,591 C206.45,591 245.64,591 282.86,591 " fill="none" id="Modifier t&#226;che-backto-valider la t&#226;che" style="stroke:#181818;stroke-width:1.0;stroke-dasharray:7.0,7.0;"/><polygon fill="#181818" points="163.6,591,172.6,595,168.6,591,172.6,587,163.6,591" style="stroke:#181818;stroke-width:1.0;"/></g><!--SRC=[dL8nJWCn4Ept5QCqEOeWqI8Q6gXe-42qs7iNaplRMZjf49-XoplkO_Z8dIv182BAdPsPdLsxbJeZ1wXhDXdMgPZiWYTYauFYFaOLppw34tWgnkP3q8wpx7HerbD15DbikH74RRDMuTOb7ZpNKSEhPBmHpLPOhL0zIXe8i9BGkhtoIolfYcRFCvRXt1-QeAwmBrCCh4vIAg4AvqSOTzUedlk3PVEz1xlSUHp3_rSkoFs7sPJnz0wSd-Zed8Qpe7eArjLET9g7udnfiXFrEErlzHpiT_c-FA4jQCidMn3H4Zva6RzEgC6sSnwtM7p1Dmlw1000]--></g></svg>