<?xml version="1.0" encoding="us-ascii" standalone="no"?><svg xmlns="http://www.w3.org/2000/svg" xmlns:xlink="http://www.w3.org/1999/xlink" contentStyleType="text/css" height="437px" preserveAspectRatio="none" style="width:702px;height:437px;background:#FFFFFF;" version="1.1" viewBox="0 0 702 437" width="702px" zoomAndPan="magnify"><defs/><g><!--cluster pkg_autorisations--><g id="cluster_pkg_autorisations"><path d="M94.5,6 L221.5,6 A3.75,3.75 0 0 1 224,8.5 L231,29.6094 L692.5,29.6094 A2.5,2.5 0 0 1 695,32.1094 L695,427.5 A2.5,2.5 0 0 1 692.5,430 L94.5,430 A2.5,2.5 0 0 1 92,427.5 L92,8.5 A2.5,2.5 0 0 1 94.5,6 " fill="none" style="stroke:#000000;stroke-width:1.5;"/><line style="stroke:#000000;stroke-width:1.5;" x1="92" x2="231" y1="29.6094" y2="29.6094"/><text fill="#000000" font-family="sans-serif" font-size="14" font-weight="bold" lengthAdjust="spacing" textLength="126" x="96" y="22.5332">pkg_autorisations</text></g><g id="elem_Gestion des controller"><ellipse cx="204.8974" cy="392.9795" fill="#F1F1F1" rx="90.3974" ry="20.4795" style="stroke:#181818;stroke-width:0.5;"/><text fill="#000000" font-family="sans-serif" font-size="14" lengthAdjust="spacing" textLength="139" x="135.3974" y="396.708">Gestion des controller</text></g><g id="elem_Gestion des autorisation"><ellipse cx="204.9525" cy="154.7905" fill="#F1F1F1" rx="96.9525" ry="21.7905" style="stroke:#181818;stroke-width:0.5;"/><text fill="#000000" font-family="sans-serif" font-size="14" lengthAdjust="spacing" textLength="154" x="127.9525" y="158.519">Gestion des autorisation</text></g><g id="elem_ajouter autorisation"><ellipse cx="205.169" cy="61.0338" fill="#F1F1F1" rx="83.169" ry="19.0338" style="stroke:#181818;stroke-width:0.5;"/><text fill="#000000" font-family="sans-serif" font-size="14" lengthAdjust="spacing" textLength="122" x="144.169" y="64.7623">ajouter autorisation</text></g><g id="elem_Gestion des actions"><ellipse cx="204.9267" cy="317.7853" fill="#F1F1F1" rx="84.4267" ry="19.2853" style="stroke:#181818;stroke-width:0.5;"/><text fill="#000000" font-family="sans-serif" font-size="14" lengthAdjust="spacing" textLength="125" x="142.4267" y="321.5139">Gestion des actions</text></g><g id="elem_ajouter action"><ellipse cx="204.957" cy="228.7914" fill="#F1F1F1" rx="69.457" ry="16.2914" style="stroke:#181818;stroke-width:0.5;"/><text fill="#000000" font-family="sans-serif" font-size="14" lengthAdjust="spacing" textLength="86" x="158.957" y="233.308">ajouter action</text></g><g id="elem_Choisir les actions permises avec lui"><ellipse cx="547.8204" cy="229.0641" fill="#F1F1F1" rx="130.8204" ry="28.5641" style="stroke:#181818;stroke-width:0.5;"/><text fill="#000000" font-family="sans-serif" font-size="14" lengthAdjust="spacing" textLength="228" x="433.8204" y="232.7926">Choisir les actions permises avec lui</text></g><g id="elem_Insertion automatique des actions"><ellipse cx="547.8414" cy="379.0683" fill="#F1F1F1" rx="123.3414" ry="27.0683" style="stroke:#181818;stroke-width:0.5;"/><text fill="#000000" font-family="sans-serif" font-size="14" lengthAdjust="spacing" textLength="212" x="441.8414" y="382.7968">Insertion automatique des actions</text></g><!--entity admin--><g id="elem_admin"><ellipse cx="25.5" cy="287.5" fill="#F1F1F1" rx="8" ry="8" style="stroke:#181818;stroke-width:0.5;"/><path d="M25.5,295.5 L25.5,322.5 M12.5,303.5 L38.5,303.5 M25.5,322.5 L12.5,337.5 M25.5,322.5 L38.5,337.5 " fill="none" style="stroke:#181818;stroke-width:0.5;"/><text fill="#000000" font-family="sans-serif" font-size="14" lengthAdjust="spacing" textLength="39" x="6" y="353.5332">Admin</text></g><!--link admin to Gestion des controller--><g id="link_admin_Gestion des controller"><path d="M45.19,331.83 C56.1,339.43 70.36,348.59 84,355 C103.19,364.01 119.3194,369.9049 139.0894,375.9149 " fill="none" id="admin-to-Gestion des controller" style="stroke:#181818;stroke-width:1.0;"/><polygon fill="#181818" points="144.83,377.66,137.3825,371.2152,140.0462,376.2057,135.0557,378.8694,144.83,377.66" style="stroke:#181818;stroke-width:1.0;"/></g><!--link admin to Gestion des autorisation--><g id="link_admin_Gestion des autorisation"><path d="M35.95,278.93 C44.36,251.93 59.27,217.03 84,195 C97.12,183.32 108.1017,177.0259 124.7717,171.1459 " fill="none" id="admin-to-Gestion des autorisation" style="stroke:#181818;stroke-width:1.0;"/><polygon fill="#181818" points="130.43,169.15,120.612,168.3716,125.7147,170.8132,123.2731,175.916,130.43,169.15" style="stroke:#181818;stroke-width:1.0;"/></g><!--reverse link Gestion des autorisation to ajouter autorisation--><g id="link_Gestion des autorisation_ajouter autorisation"><path d="M205,126.72 C205,110.76 205,95.48 205,80.25 " fill="none" id="Gestion des autorisation-backto-ajouter autorisation" style="stroke:#181818;stroke-width:1.0;stroke-dasharray:7.0,7.0;"/><polygon fill="#181818" points="205,132.72,209,123.72,205,127.72,201,123.72,205,132.72" style="stroke:#181818;stroke-width:1.0;"/><text fill="#000000" font-family="sans-serif" font-size="13" lengthAdjust="spacing" textLength="53" x="166.5" y="111.9951">&#171;extend&#187;</text></g><!--link admin to Gestion des actions--><g id="link_admin_Gestion des actions"><path d="M45.16,318 C63.32,318 86.22,318 114.43,318 " fill="none" id="admin-to-Gestion des actions" style="stroke:#181818;stroke-width:1.0;"/><polygon fill="#181818" points="120.43,318,111.43,314,115.43,318,111.43,322,120.43,318" style="stroke:#181818;stroke-width:1.0;"/></g><!--reverse link Gestion des actions to ajouter action--><g id="link_Gestion des actions_ajouter action"><path d="M205,292.25 C205,276.47 205,260.62 205,245.71 " fill="none" id="Gestion des actions-backto-ajouter action" style="stroke:#181818;stroke-width:1.0;stroke-dasharray:7.0,7.0;"/><polygon fill="#181818" points="205,298.25,209,289.25,205,293.25,201,289.25,205,298.25" style="stroke:#181818;stroke-width:1.0;"/><text fill="#000000" font-family="sans-serif" font-size="13" lengthAdjust="spacing" textLength="53" x="166.5" y="277.4951">&#171;extend&#187;</text></g><!--reverse link ajouter action to Choisir les actions permises avec lui--><g id="link_ajouter action_Choisir les actions permises avec lui"><path d="M280.6,229 C321.34,229 368.35,229 416.77,229 " fill="none" id="ajouter action-backto-Choisir les actions permises avec lui" style="stroke:#181818;stroke-width:1.0;stroke-dasharray:7.0,7.0;"/><polygon fill="#181818" points="274.6,229,283.6,233,279.6,229,283.6,225,274.6,229" style="stroke:#181818;stroke-width:1.0;"/><text fill="#000000" font-family="sans-serif" font-size="13" lengthAdjust="spacing" textLength="53" x="333" y="225.4951">&#171;extend&#187;</text></g><!--reverse link Gestion des controller to Insertion automatique des actions--><g id="link_Gestion des controller_Insertion automatique des actions"><path d="M300.2549,389.1328 C340.5149,387.4728 382.82,385.74 426.36,383.95 " fill="none" id="Gestion des controller-backto-Insertion automatique des actions" style="stroke:#181818;stroke-width:1.0;stroke-dasharray:7.0,7.0;"/><polygon fill="#181818" points="294.26,389.38,303.4171,393.0058,299.2558,389.174,303.0876,385.0126,294.26,389.38" style="stroke:#181818;stroke-width:1.0;"/><text fill="#000000" font-family="sans-serif" font-size="13" lengthAdjust="spacing" textLength="53" x="333" y="382.4951">&#171;extend&#187;</text></g><!--SRC=[VP71QiCm44Jl-eeXbyQ717eDnb1o2FsAeieRHusiTQLrAPJ-UoGxeQwR-YRs3JEpAqT7WJ22RKw2sWOoOjchXpJiCdXb4MudH6aZ7F1KjzP3H-ZyKAhJvgmRGdTkNdIV53Rgh8_uKWgZ2fjD1QmF53D1JH66lGHsZaAn99iw5b2B5EKMQ_t6lL2OentAaZw5V5rLYtd3hl5Er0tab4cC6GD- -T_XvJPrsv_OHXlWVlpGKMXjp8CFCd2zBVvq_Uzke-cpZnG6d5TkqyBlFSqgp-fz0ofzj6UXw__pyNgH7LR3-76bBW00]--></g></svg>