<?xml version="1.0" encoding="us-ascii" standalone="no"?><svg xmlns="http://www.w3.org/2000/svg" xmlns:xlink="http://www.w3.org/1999/xlink" contentStyleType="text/css" height="311px" preserveAspectRatio="none" style="width:802px;height:311px;background:#FFFFFF;" version="1.1" viewBox="0 0 802 311" width="802px" zoomAndPan="magnify"><defs/><g><!--cluster pkg_technologies--><g id="cluster_pkg_technologies"><path d="M121.5,6 L248.5,6 A3.75,3.75 0 0 1 251,8.5 L258,29.6094 L792.5,29.6094 A2.5,2.5 0 0 1 795,32.1094 L795,301.5 A2.5,2.5 0 0 1 792.5,304 L121.5,304 A2.5,2.5 0 0 1 119,301.5 L119,8.5 A2.5,2.5 0 0 1 121.5,6 " fill="none" style="stroke:#000000;stroke-width:1.5;"/><line style="stroke:#000000;stroke-width:1.5;" x1="119" x2="258" y1="29.6094" y2="29.6094"/><text fill="#000000" font-family="sans-serif" font-size="14" font-weight="bold" lengthAdjust="spacing" textLength="126" x="123" y="22.5332">pkg_technologies</text></g><g id="elem_Gestion des technologies"><ellipse cx="632.113" cy="264.8226" fill="#F1F1F1" rx="99.613" ry="22.3226" style="stroke:#181818;stroke-width:0.5;"/><text fill="#000000" font-family="sans-serif" font-size="14" lengthAdjust="spacing" textLength="160" x="552.113" y="268.5511">Gestion des technologies</text></g><g id="elem_Gestion des cat&#233;gories des technologies"><ellipse cx="279.5214" cy="174.8043" fill="#F1F1F1" rx="144.5214" ry="31.3043" style="stroke:#181818;stroke-width:0.5;"/><text fill="#000000" font-family="sans-serif" font-size="14" lengthAdjust="spacing" textLength="257" x="151.0214" y="178.5328">Gestion des cat&#233;gories des technologies</text></g><g id="elem_Ajouter"><ellipse cx="631.811" cy="173.9535" fill="#F1F1F1" rx="43.311" ry="15.4535" style="stroke:#181818;stroke-width:0.5;"/><text fill="#000000" font-family="sans-serif" font-size="14" lengthAdjust="spacing" textLength="45" x="608.8228" y="177.8329">Ajouter</text></g><g id="elem_Affecter la technologie &#224; une comp&#233;tence"><ellipse cx="631.8995" cy="73.7799" fill="#F1F1F1" rx="146.8995" ry="31.7799" style="stroke:#181818;stroke-width:0.5;"/><text fill="#000000" font-family="sans-serif" font-size="14" lengthAdjust="spacing" textLength="262" x="500.8995" y="77.5084">Affecter la technologie &#224; une comp&#233;tence</text></g><g id="elem_Consulter les technologies"><ellipse cx="279.7412" cy="264.9482" fill="#F1F1F1" rx="102.7412" ry="22.9482" style="stroke:#181818;stroke-width:0.5;"/><text fill="#000000" font-family="sans-serif" font-size="14" lengthAdjust="spacing" textLength="167" x="196.2412" y="268.6768">Consulter les technologies</text></g><!--entity formateur--><g id="elem_formateur"><ellipse cx="39" cy="90.5" fill="#F1F1F1" rx="8" ry="8" style="stroke:#181818;stroke-width:0.5;"/><path d="M39,98.5 L39,125.5 M26,106.5 L52,106.5 M39,125.5 L26,140.5 M39,125.5 L52,140.5 " fill="none" style="stroke:#181818;stroke-width:0.5;"/><text fill="#000000" font-family="sans-serif" font-size="14" lengthAdjust="spacing" textLength="66" x="6" y="156.5332">Formateur</text></g><!--entity apprenant--><g id="elem_apprenant"><ellipse cx="39" cy="234.5" fill="#F1F1F1" rx="8" ry="8" style="stroke:#181818;stroke-width:0.5;"/><path d="M39,242.5 L39,269.5 M26,250.5 L52,250.5 M39,269.5 L26,284.5 M39,269.5 L52,284.5 " fill="none" style="stroke:#181818;stroke-width:0.5;"/><text fill="#000000" font-family="sans-serif" font-size="14" lengthAdjust="spacing" textLength="66" x="6" y="300.5332">Apprenant</text></g><!--link formateur to Gestion des technologies--><g id="link_formateur_Gestion des technologies"><path d="M72.21,112.19 C141.35,95.15 307.18,64.52 424,126 C463.88,146.99 449.17,179.66 485,207 C509.07,225.36 534.0319,236.771 561.0319,245.991 " fill="none" id="formateur-to-Gestion des technologies" style="stroke:#181818;stroke-width:1.0;"/><polygon fill="#181818" points="566.71,247.93,559.4855,241.2362,561.9783,246.3142,556.9003,248.8069,566.71,247.93" style="stroke:#181818;stroke-width:1.0;"/></g><!--link formateur to Gestion des cat?gories des technologies--><g id="link_formateur_Gestion des cat&#233;gories des technologies"><path d="M72.17,128.28 C99.57,134.49 134.5984,142.4139 172.7684,151.0639 " fill="none" id="formateur-to-Gestion des cat&#233;gories des technologies" style="stroke:#181818;stroke-width:1.0;"/><polygon fill="#181818" points="178.62,152.39,170.7266,146.4998,173.7436,151.2849,168.9585,154.302,178.62,152.39" style="stroke:#181818;stroke-width:1.0;"/></g><!--reverse link Gestion des technologies to Ajouter--><g id="link_Gestion des technologies_Ajouter"><path d="M632,236.04 C632,219.61 632,203.94 632,189.51 " fill="none" id="Gestion des technologies-backto-Ajouter" style="stroke:#181818;stroke-width:1.0;stroke-dasharray:7.0,7.0;"/><polygon fill="#181818" points="632,242.04,636,233.04,632,237.04,628,233.04,632,242.04" style="stroke:#181818;stroke-width:1.0;"/><text fill="#000000" font-family="sans-serif" font-size="13" lengthAdjust="spacing" textLength="53" x="593.5" y="221.4951">&#171;extend&#187;</text></g><!--reverse link Ajouter to Affecter la technologie ? une comp?tence--><g id="link_Ajouter_Affecter la technologie &#224; une comp&#233;tence"><path d="M632,152.38 C632,138.42 632,123.55 632,106.05 " fill="none" id="Ajouter-backto-Affecter la technologie &#224; une comp&#233;tence" style="stroke:#181818;stroke-width:1.0;stroke-dasharray:7.0,7.0;"/><polygon fill="#181818" points="632,158.38,636,149.38,632,153.38,628,149.38,632,158.38" style="stroke:#181818;stroke-width:1.0;"/><text fill="#000000" font-family="sans-serif" font-size="13" lengthAdjust="spacing" textLength="53" x="593.5" y="137.7451">&#171;extend&#187;</text></g><!--link apprenant to Consulter les technologies--><g id="link_apprenant_Consulter les technologies"><path d="M72.17,265 C99.12,265 133.13,265 170.76,265 " fill="none" id="apprenant-to-Consulter les technologies" style="stroke:#181818;stroke-width:1.0;"/><polygon fill="#181818" points="176.76,265,167.76,261,171.76,265,167.76,269,176.76,265" style="stroke:#181818;stroke-width:1.0;"/></g><!--link Consulter les technologies to Gestion des technologies--><g id="link_Consulter les technologies_Gestion des technologies"><path d="M382.35,265 C429.55,265 479.41,265 526.22,265 " fill="none" id="Consulter les technologies-to-Gestion des technologies" style="stroke:#181818;stroke-width:1.0;stroke-dasharray:7.0,7.0;"/><polygon fill="#181818" points="532.22,265,523.22,261,527.22,265,523.22,269,532.22,265" style="stroke:#181818;stroke-width:1.0;"/></g><!--SRC=[XP51QiGm34NtFiLdDaqM4-YsX40ejCSehgDut4aiuoXGABrBjtEENApsCDE6eQHBwKbVNz90lK0OqTc3e7EHZ3ZswWuf6p9vPH4ULqWfROGZdZYEMcYEq1FwQt21RGYHlFQIeRu6gJTeSzIM48xsHSWSF0zi7KtuKFXLmNxV0CKpJNaakiJNnIN-AJPQbfFbc8N_RDwGhgk4spUUXMA91zGrlGlvhcdK6gIoektxT1IA6FHQ1CiNPaymF8Rbb7eDbS2jrCzLil_YaVqq3sUjMqTvx0P6LJKR-wXFGAL_UXQwl9bxw6vqFZdQdTFtE_KD]--></g></svg>